<?xml version="1.0" encoding="utf-8"?>
<!-- Generator: Adobe Illustrator 16.0.0, SVG Export Plug-In . SVG Version: 6.00 Build 0)  -->
<!DOCTYPE svg PUBLIC "-//W3C//DTD SVG 1.1//EN" "http://www.w3.org/Graphics/SVG/1.1/DTD/svg11.dtd">
<svg version="1.1" id="图层_1" xmlns="http://www.w3.org/2000/svg" xmlns:xlink="http://www.w3.org/1999/xlink" x="0px" y="0px"
	 width="24px" height="24px" viewBox="0 0 24 24" enable-background="new 0 0 24 24" xml:space="preserve">
<path fill="#FF6700" d="M12,0C5.373,0,0,5.373,0,12c0,6.627,5.373,12,12,12c6.627,0,12-5.373,12-12C24,5.373,18.627,0,12,0z
	 M20.094,7.848l-9.36,9.714c-0.333,0.467-0.981,0.574-1.448,0.242c-0.051-0.037-0.099-0.078-0.142-0.123
	c-0.029-0.037-0.055-0.078-0.078-0.119l-5.16-5.347c-0.408-0.428-0.408-1.101,0-1.53c0.386-0.406,1.027-0.422,1.433-0.037
	c0.013,0.012,0.025,0.024,0.037,0.037l4.518,4.686L18.6,6.324c0.387-0.406,1.027-0.422,1.434-0.037
	c0.013,0.012,0.025,0.024,0.037,0.037C20.48,6.746,20.491,7.414,20.094,7.848z"/>
</svg>
