<?xml version="1.0" standalone="no"?><!DOCTYPE svg PUBLIC "-//W3C//DTD SVG 1.1//EN" "http://www.w3.org/Graphics/SVG/1.1/DTD/svg11.dtd"><svg t="1587982814378" class="icon" viewBox="0 0 1024 1024" version="1.1" xmlns="http://www.w3.org/2000/svg" p-id="5628" xmlns:xlink="http://www.w3.org/1999/xlink" width="200" height="200"><defs><style type="text/css"></style></defs><path d="M902.4 364.8l-156.8 156.8c-16 16-41.6 16-56 0s-16-41.6 0-56l156.8-156.8c35.2-35.2 35.2-92.8 0-128s-92.8-35.2-128 0l-224 224c-35.2 35.2-35.2 92.8 0 128 16 16 16 41.6 0 56-8 8-17.6 11.2-28.8 11.2s-20.8-3.2-28.8-11.2c-67.2-67.2-67.2-174.4 0-241.6l224-224c32-32 75.2-49.6 121.6-49.6s88 17.6 121.6 49.6c64 65.6 64 174.4-1.6 241.6z m-371.2 70.4c-16 16-16 41.6 0 56 17.6 17.6 27.2 40 27.2 64s-9.6 48-27.2 64l-224 224c-35.2 35.2-92.8 35.2-128 0s-35.2-92.8 0-128L336 560c16-16 16-41.6 0-56s-41.6-16-56 0l-156.8 156.8c-67.2 67.2-67.2 174.4 0 241.6 32 32 75.2 49.6 121.6 49.6s88-17.6 121.6-49.6l224-224c67.2-67.2 67.2-174.4 0-241.6-17.6-16-43.2-16-59.2-1.6z" fill="#333333" p-id="5629"></path></svg>