<?xml version="1.0" standalone="no"?><!DOCTYPE svg PUBLIC "-//W3C//DTD SVG 1.1//EN" "http://www.w3.org/Graphics/SVG/1.1/DTD/svg11.dtd"><svg t="1587982725618" class="icon" viewBox="0 0 1024 1024" version="1.1" xmlns="http://www.w3.org/2000/svg" p-id="4783" xmlns:xlink="http://www.w3.org/1999/xlink" width="200" height="200"><defs><style type="text/css"></style></defs><path d="M512.036571 1024c-77.604571 0-402.285714-309.796571-402.285714-614.4a402.285714 402.285714 0 1 1 804.571429 0c0 304.603429-324.681143 614.4-402.285715 614.4z m0-950.857143a329.142857 329.142857 0 0 0-329.142857 329.142857c0 229.778286 243.382857 512 329.142857 512 81.225143 0 329.142857-279.954286 329.142858-512a329.142857 329.142857 0 0 0-329.142858-329.142857z m0 438.857143a109.714286 109.714286 0 1 1 109.714286-109.714286 109.714286 109.714286 0 0 1-109.714286 109.714286z" fill="#333333" p-id="4784"></path></svg>