<?xml version="1.0" standalone="no"?><!DOCTYPE svg PUBLIC "-//W3C//DTD SVG 1.1//EN" "http://www.w3.org/Graphics/SVG/1.1/DTD/svg11.dtd"><svg t="1585635821271" class="icon" viewBox="0 0 1024 1024" version="1.1" xmlns="http://www.w3.org/2000/svg" p-id="2188" xmlns:xlink="http://www.w3.org/1999/xlink" width="200" height="200"><defs><style type="text/css"></style></defs><path d="M512.512 960c-0.512 0-0.512 0 0 0-24.576 0-46.08-11.264-60.416-30.72l-72.192-98.816H108.032c-35.84 0-64.512-29.696-64.512-66.56v-599.04c0-36.864 29.184-66.56 64.512-66.56h807.936c35.84 0 64.512 29.696 64.512 66.56v599.04c0 36.864-29.184 66.56-64.512 66.56h-269.312l-74.24 99.84c-14.336 18.944-36.352 29.696-59.904 29.696z m-400.896-198.144h270.848c20.48 0 39.936 10.24 51.712 26.624l73.216 100.352c1.536 2.048 3.584 2.56 5.12 2.56 1.536 0 3.584-0.512 5.12-2.56l75.264-101.376c12.288-16.384 31.232-26.112 51.2-26.112h268.288V166.4H111.616v595.456z m181.248-320c-24.576 0-44.544 19.968-44.544 44.544s19.968 44.544 44.544 44.544 44.544-19.968 44.544-44.544-19.968-44.544-44.544-44.544z m233.984 0c-24.576 0-44.544 19.968-44.544 44.544s19.968 44.544 44.544 44.544 44.544-19.968 44.544-44.544-19.968-44.544-44.544-44.544z m224.256 0c-24.576 0-44.544 19.968-44.544 44.544s19.968 44.544 44.544 44.544c24.576 0 44.544-19.968 44.544-44.544s-19.968-44.544-44.544-44.544z" p-id="2189" fill="#ffffff"></path></svg>