<?xml version="1.0" encoding="utf-8"?>
<!-- Generator: Adobe Illustrator 16.0.0, SVG Export Plug-In . SVG Version: 6.00 Build 0)  -->
<!DOCTYPE svg PUBLIC "-//W3C//DTD SVG 1.1//EN" "http://www.w3.org/Graphics/SVG/1.1/DTD/svg11.dtd">
<svg version="1.1" id="图层_1" xmlns="http://www.w3.org/2000/svg" xmlns:xlink="http://www.w3.org/1999/xlink" x="0px" y="0px"
	 width="24px" height="24px" viewBox="0 0 24 24" enable-background="new 0 0 24 24" xml:space="preserve">
<path fill="#333333" d="M6.835,9.033c-0.714,0-1.293,0.601-1.293,1.342c0,0.742,0.579,1.342,1.293,1.342
	c0.715,0,1.294-0.601,1.294-1.342C8.129,9.634,7.55,9.033,6.835,9.033L6.835,9.033z"/>
<path fill="#333333" d="M12.011,9.033c-0.714,0-1.294,0.601-1.294,1.342c0,0.742,0.58,1.342,1.294,1.342
	c0.714,0,1.294-0.601,1.294-1.342C13.305,9.634,12.725,9.033,12.011,9.033L12.011,9.033z"/>
<path fill="#333333" d="M17.187,9.033c-0.715,0-1.294,0.601-1.294,1.342c0,0.742,0.579,1.342,1.294,1.342
	c0.714,0,1.294-0.601,1.294-1.342C18.48,9.634,17.9,9.033,17.187,9.033L17.187,9.033z"/>
<path fill="#333333" d="M19.773,2.322H4.248c-1.429,0-2.588,1.202-2.588,2.685v10.065c0,1.482,1.185,2.85,2.646,2.85H8.25
	c0.688,0.732,3.533,3.678,3.533,3.678c0.126,0.131,0.331,0.131,0.457,0c0,0,2.083-2.361,3.44-3.678h4.035
	c1.463,0,2.646-1.367,2.646-2.85V5.006C22.361,3.524,21.203,2.322,19.773,2.322z M21.081,15.077c0,0.742-0.622,1.521-1.354,1.521
	h-3.975c-0.481,0-0.914,0.496-0.914,0.496l-2.791,2.895l-2.79-2.895c0,0-0.532-0.496-0.987-0.496H4.295
	c-0.732,0-1.354-0.778-1.354-1.521V4.997c0-0.743,0.58-1.344,1.295-1.344h15.549c0.715,0,1.296,0.602,1.296,1.344V15.077z"/>
<path fill="#333333" d="M21.068,15.072"/>
</svg>
