<?xml version="1.0" encoding="utf-8"?>
<!-- Generator: Adobe Illustrator 16.0.0, SVG Export Plug-In . SVG Version: 6.00 Build 0)  -->
<!DOCTYPE svg PUBLIC "-//W3C//DTD SVG 1.1//EN" "http://www.w3.org/Graphics/SVG/1.1/DTD/svg11.dtd">
<svg version="1.1" id="图层_1" xmlns="http://www.w3.org/2000/svg" xmlns:xlink="http://www.w3.org/1999/xlink" x="0px" y="0px"
	 width="24px" height="24px" viewBox="0 0 24 24" enable-background="new 0 0 24 24" xml:space="preserve">
<path fill="#666666" d="M0,12c0,1.242,1.007,2.25,2.25,2.25S4.5,13.242,4.5,12c0-1.243-1.007-2.25-2.25-2.25S0,10.757,0,12z"/>
<path fill="#666666" d="M9.75,12c0,1.242,1.007,2.25,2.25,2.25c1.242,0,2.25-1.008,2.25-2.25c0-1.243-1.008-2.25-2.25-2.25
	C10.757,9.75,9.75,10.757,9.75,12z"/>
<path fill="#666666" d="M19.5,12c0,1.242,1.008,2.25,2.25,2.25S24,13.242,24,12c0-1.243-1.008-2.25-2.25-2.25S19.5,10.757,19.5,12z"
	/>
</svg>
