<?xml version="1.0" encoding="utf-8"?>
<!-- Generator: Adobe Illustrator 16.0.0, SVG Export Plug-In . SVG Version: 6.00 Build 0)  -->
<!DOCTYPE svg PUBLIC "-//W3C//DTD SVG 1.1//EN" "http://www.w3.org/Graphics/SVG/1.1/DTD/svg11.dtd">
<svg version="1.1" id="图层_1" xmlns="http://www.w3.org/2000/svg" xmlns:xlink="http://www.w3.org/1999/xlink" x="0px" y="0px"
	 width="24.023px" height="24px" viewBox="0 0 24.023 24" enable-background="new 0 0 24.023 24" xml:space="preserve">
<path fill="#AAAAAA" d="M6.858,21.027H3.807c0.308-4.25,3.865-7.615,8.193-7.615c1.016,0,1.989,0.186,2.889,0.525l0.92-0.921
	c-0.048-0.021-0.096-0.042-0.145-0.063c-0.266-0.111-0.535-0.211-0.809-0.299c0.436-0.25,0.84-0.559,1.204-0.923
	c1.084-1.084,1.681-2.526,1.681-4.06c0-1.533-0.597-2.975-1.681-4.06C14.975,2.528,13.533,1.931,12,1.931S9.025,2.528,7.94,3.612
	c-1.084,1.084-1.681,2.526-1.681,4.06c0,1.534,0.597,2.975,1.681,4.06c0.364,0.364,0.769,0.673,1.204,0.923
	c-0.273,0.088-0.542,0.188-0.809,0.299c-1.121,0.475-2.127,1.153-2.992,2.018c-0.864,0.864-1.543,1.871-2.017,2.992
	c-0.491,1.161-0.74,2.395-0.74,3.664c0,0.332,0.269,0.6,0.6,0.6h3.673c0.331,0,0.6-0.268,0.6-0.6
	C7.458,21.297,7.189,21.027,6.858,21.027z M7.458,7.672C7.458,5.167,9.496,3.13,12,3.13c2.504,0,4.541,2.037,4.541,4.542
	S14.504,12.213,12,12.213C9.496,12.213,7.458,10.176,7.458,7.672z M20.674,17.963c-0.428-1.01-1.021-1.927-1.766-2.73l-0.852,0.852
	c1.213,1.324,1.999,3.045,2.137,4.943h-3.053c-0.33,0-0.6,0.27-0.6,0.6c0,0.332,0.27,0.6,0.6,0.6h3.674c0.331,0,0.6-0.268,0.6-0.6
	C21.414,20.357,21.165,19.124,20.674,17.963z M18.552,12.914c-0.233-0.234-0.614-0.234-0.848,0l-5.722,5.722l-2.509-2.509
	c-0.234-0.234-0.614-0.234-0.848,0c-0.234,0.234-0.234,0.614,0,0.849l2.933,2.933c0.117,0.117,0.271,0.176,0.424,0.176
	s0.307-0.059,0.424-0.176l6.146-6.146C18.786,13.528,18.786,13.148,18.552,12.914z"/>
</svg>
