<?xml version="1.0" encoding="utf-8"?>
<!-- Generator: Adobe Illustrator 16.0.0, SVG Export Plug-In . SVG Version: 6.00 Build 0)  -->
<!DOCTYPE svg PUBLIC "-//W3C//DTD SVG 1.1//EN" "http://www.w3.org/Graphics/SVG/1.1/DTD/svg11.dtd">
<svg version="1.1" id="图层_1" xmlns="http://www.w3.org/2000/svg" xmlns:xlink="http://www.w3.org/1999/xlink" x="0px" y="0px"
	 width="24px" height="24px" viewBox="0 0 24 24" enable-background="new 0 0 24 24" xml:space="preserve">
<path fill="#FFFFFF" d="M11.297,4.646c-1.11-1.52-2.396-2.28-3.974-2.28c-3.039,0-5.552,2.747-5.552,6.195
	c0,1.695,0.468,2.805,1.694,4.792c0.176,0.234,0.351,0.527,0.526,0.76c0.76,1.052,1.812,2.163,3.039,3.272
	c0.994,0.936,2.045,1.813,3.097,2.631c0.351,0.293,0.701,0.583,1.052,0.817c0.175,0.117,0.468,0.351,0.526,0.351
	c0.117,0.175,0.176,0.175,0.292,0.175s0.175-0.058,0.292-0.116l0.526-0.351c0.351-0.234,0.701-0.526,1.053-0.817
	c1.05-0.818,2.103-1.754,3.097-2.631c1.227-1.168,2.279-2.279,3.039-3.272c0.176-0.291,0.351-0.525,0.526-0.76
	c1.285-1.987,1.693-3.097,1.693-4.792c0-3.448-2.512-6.195-5.552-6.195c-1.578,0-2.862,0.76-3.974,2.279l-0.701,0.876L11.297,4.646z
	 M16.673,0.614c4.032,0,7.306,3.565,7.306,7.948c0,2.104-0.584,3.507-1.987,5.728c-0.175,0.293-0.409,0.584-0.585,0.876
	c-0.818,1.111-1.927,2.279-3.214,3.508c-0.993,0.935-2.104,1.868-3.215,2.745c-0.642,0.527-1.811,1.346-1.577,1.17
	c-0.467,0.351-0.935,0.525-1.402,0.525s-0.994-0.175-1.344-0.467c0.233,0.175-0.936-0.701-1.578-1.17
	c-1.11-0.877-2.221-1.811-3.214-2.745c-1.286-1.229-2.396-2.396-3.214-3.508c-0.234-0.293-0.409-0.583-0.584-0.876
	C0.66,12.068,0.076,10.724,0.076,8.62C0.018,4.179,3.232,0.614,7.323,0.614c1.812,0,3.389,0.76,4.675,2.104
	C13.284,1.374,14.862,0.614,16.673,0.614z"/>
</svg>
