<?xml version="1.0" standalone="no"?><!DOCTYPE svg PUBLIC "-//W3C//DTD SVG 1.1//EN" "http://www.w3.org/Graphics/SVG/1.1/DTD/svg11.dtd"><svg t="1587524394784" class="icon" viewBox="0 0 1024 1024" version="1.1" xmlns="http://www.w3.org/2000/svg" p-id="1916" xmlns:xlink="http://www.w3.org/1999/xlink" width="200" height="200"><defs><style type="text/css"></style></defs><path d="M763.2 484.08h-27.904V260.784c0-107.904-99.984-195.376-223.296-195.376S288.704 152.88 288.704 260.784V484.08H260.8c-46.256 0-83.728 37.472-83.728 83.744v307.024c0 46.224 37.488 83.728 83.728 83.728h502.4c46.272 0 83.728-37.52 83.728-83.728V567.824c0.016-46.272-37.456-83.744-83.728-83.744zM567.824 775.632v43.408c0 30.816-25.008 55.824-55.824 55.824-30.832 0-55.808-25.008-55.808-55.824v-43.408c-33.232-19.36-55.824-54.944-55.824-96.16 0-61.664 49.984-111.648 111.648-111.648s111.648 49.968 111.648 111.648c-0.016 41.216-22.624 76.8-55.84 96.16z m55.824-319.456c0 9.84-2.672 19.152-6.848 27.904H407.2c-4.176-8.752-6.848-18.064-6.848-27.904V260.784c0-46.272 49.984-83.728 111.648-83.728s111.648 37.472 111.648 83.728v195.392z" p-id="1917" fill="#999999"></path></svg>