<?xml version="1.0" standalone="no"?><!DOCTYPE svg PUBLIC "-//W3C//DTD SVG 1.1//EN" "http://www.w3.org/Graphics/SVG/1.1/DTD/svg11.dtd"><svg t="1587608882192" class="icon" viewBox="0 0 1024 1024" version="1.1" xmlns="http://www.w3.org/2000/svg" p-id="3711" xmlns:xlink="http://www.w3.org/1999/xlink" width="200" height="200"><defs><style type="text/css"></style></defs><path d="M465.92 275.2c-10.24-10.24-26.88-8.96-35.84 1.28-10.24 10.24-8.96 26.88 1.28 35.84L641.28 512 430.08 710.4c-10.24 10.24-10.24 25.6-1.28 35.84 5.12 5.12 11.52 7.68 19.2 7.68 6.4 0 12.8-2.56 17.92-6.4l230.4-217.6c5.12-5.12 7.68-11.52 7.68-19.2s-2.56-14.08-7.68-19.2L465.92 275.2z" p-id="3712" fill="#ffffff"></path><path d="M512 102.4c-108.8 0-212.48 42.24-289.28 120.32C144.64 299.52 102.4 403.2 102.4 512s42.24 212.48 120.32 289.28c76.8 76.8 180.48 120.32 289.28 120.32 108.8 0 212.48-42.24 289.28-120.32 76.8-76.8 120.32-180.48 120.32-289.28s-42.24-212.48-120.32-289.28C724.48 144.64 620.8 102.4 512 102.4zM765.44 765.44C697.6 833.28 608 870.4 512 870.4c-96 0-185.6-37.12-253.44-104.96C190.72 697.6 153.6 608 153.6 512s37.12-185.6 104.96-253.44C326.4 190.72 416 153.6 512 153.6c96 0 185.6 37.12 253.44 104.96C833.28 326.4 870.4 416 870.4 512S833.28 697.6 765.44 765.44z" p-id="3713" fill="#ffffff"></path></svg>