<?xml version="1.0" standalone="no"?><!DOCTYPE svg PUBLIC "-//W3C//DTD SVG 1.1//EN" "http://www.w3.org/Graphics/SVG/1.1/DTD/svg11.dtd"><svg t="1586932819595" class="icon" viewBox="0 0 1024 1024" version="1.1" xmlns="http://www.w3.org/2000/svg" p-id="1175" xmlns:xlink="http://www.w3.org/1999/xlink" width="200" height="200"><defs><style type="text/css"></style></defs><path d="M976.64 930.56H51.2c-19.2 0-34.56 15.36-34.56 34.56 0 19.2 15.36 34.56 34.56 34.56h929.28c19.2 0 34.56-15.36 34.56-34.56-3.84-15.36-19.2-34.56-38.4-34.56zM47.36 826.88h165.12c7.68 0 19.2-3.84 23.04-11.52l568.32-568.32c15.36-15.36 15.36-34.56 0-49.92L642.56 32C627.2 16.64 608 16.64 592.64 32l-115.2 115.2L24.32 600.32c-7.68 7.68-11.52 15.36-11.52 23.04v165.12c0 7.68 3.84 19.2 11.52 26.88 3.84 7.68 15.36 11.52 23.04 11.52zM615.68 104.96l115.2 115.2-65.28 65.28-115.2-115.2 65.28-65.28zM85.76 638.72l418.56-418.56 115.2 115.2-418.56 418.56h-115.2v-115.2z" p-id="1176" fill="#ffffff"></path></svg>