<?xml version="1.0" encoding="utf-8"?>
<!-- Generator: Adobe Illustrator 16.0.0, SVG Export Plug-In . SVG Version: 6.00 Build 0)  -->
<!DOCTYPE svg PUBLIC "-//W3C//DTD SVG 1.1//EN" "http://www.w3.org/Graphics/SVG/1.1/DTD/svg11.dtd">
<svg version="1.1" id="图层_1" xmlns="http://www.w3.org/2000/svg" xmlns:xlink="http://www.w3.org/1999/xlink" x="0px" y="0px"
	 width="24px" height="24px" viewBox="0 0 24 24" enable-background="new 0 0 24 24" xml:space="preserve">
<g>
	<path fill="#333333" d="M21.697,13.982c-0.379,0-0.629,0.254-0.629,0.631v4.723c0,0.818-0.694,1.512-1.512,1.512H4.382
		c-0.819,0-1.511-0.691-1.511-1.512V6.112c0-0.818,0.692-1.511,1.511-1.511H9.23c0.377,0,0.629-0.252,0.629-0.63
		c0-0.377-0.252-0.63-0.629-0.63H4.382c-1.511,0-2.771,1.26-2.771,2.771v13.224c0,1.512,1.259,2.771,2.771,2.771h15.237
		c1.51,0,2.77-1.26,2.77-2.771v-4.723C22.326,14.236,22.075,13.982,21.697,13.982z"/>
	<path fill="#333333" d="M18.107,2.083c-0.252-0.252-0.629-0.252-0.881,0s-0.252,0.63,0,0.881l3.086,3.086h-3.338
		c-6.17,0.756-7.745,4.722-8.123,10.39c0,0.379,0.252,0.631,0.565,0.692h0.064c0.314,0,0.629-0.251,0.629-0.565
		c0.378-5.354,1.7-8.563,6.988-9.257h3.465l-3.084,3.085c-0.254,0.254-0.254,0.631,0,0.883c0.125,0.125,0.313,0.188,0.438,0.188
		s0.315-0.063,0.44-0.188l3.59-3.589c0.252-0.253,0.377-0.567,0.377-0.882s-0.125-0.63-0.377-0.882L18.107,2.083z"/>
</g>
</svg>
