<?xml version="1.0" encoding="utf-8"?>
<!-- Generator: Adobe Illustrator 16.0.0, SVG Export Plug-In . SVG Version: 6.00 Build 0)  -->
<!DOCTYPE svg PUBLIC "-//W3C//DTD SVG 1.1//EN" "http://www.w3.org/Graphics/SVG/1.1/DTD/svg11.dtd">
<svg version="1.1" id="图层_1" xmlns="http://www.w3.org/2000/svg" xmlns:xlink="http://www.w3.org/1999/xlink" x="0px" y="0px"
	 width="24px" height="24px" viewBox="0 0 24 24" enable-background="new 0 0 24 24" xml:space="preserve">
<path fill="#FF6700" d="M18.025,21.93c-0.104,0-0.209-0.025-0.305-0.076L12,18.846l-5.72,3.008
	c-0.321,0.169-0.718,0.045-0.886-0.275c-0.067-0.128-0.09-0.273-0.066-0.416l1.092-6.37l-4.628-4.511
	c-0.26-0.253-0.265-0.668-0.012-0.928C1.881,9.25,2.013,9.182,2.156,9.162l6.396-0.929l2.86-5.795
	c0.16-0.325,0.554-0.458,0.879-0.298c0.129,0.064,0.234,0.168,0.297,0.298l2.861,5.795l6.395,0.929
	c0.359,0.052,0.607,0.385,0.556,0.744c-0.021,0.143-0.089,0.275-0.191,0.375l-4.628,4.511l1.092,6.37
	c0.063,0.357-0.178,0.696-0.535,0.758C18.1,21.926,18.063,21.93,18.025,21.93z M12,17.449c0.105,0,0.21,0.024,0.305,0.074
	l4.849,2.55l-0.926-5.399c-0.037-0.213,0.033-0.43,0.188-0.581l3.923-3.824l-5.422-0.788c-0.213-0.031-0.398-0.165-0.494-0.359
	L12,4.21L9.576,9.123C9.48,9.316,9.295,9.451,9.082,9.481L3.66,10.269l3.923,3.824c0.155,0.151,0.226,0.368,0.189,0.581
	l-0.926,5.399l4.849-2.55C11.789,17.475,11.894,17.449,12,17.449z"/>
</svg>
