<?xml version="1.0" encoding="utf-8"?>
<!-- Generator: Adobe Illustrator 16.0.0, SVG Export Plug-In . SVG Version: 6.00 Build 0)  -->
<!DOCTYPE svg PUBLIC "-//W3C//DTD SVG 1.1//EN" "http://www.w3.org/Graphics/SVG/1.1/DTD/svg11.dtd">
<svg version="1.1" id="图层_1" xmlns="http://www.w3.org/2000/svg" xmlns:xlink="http://www.w3.org/1999/xlink" x="0px" y="0px"
	 width="24px" height="24px" viewBox="0 0 24 24" enable-background="new 0 0 24 24" xml:space="preserve">
<path fill="#FF6700" d="M21.631,9.922C21.106,9.26,20.32,8.88,19.475,8.88l-5.172,0.021c0.264-0.733,0.408-1.436,0.543-2.197
	c0.143-0.801,0.148-2.363-0.297-3.179c-0.547-1.003-1.402-1.653-2.618-1.834c-0.551-0.082-1.024,0.024-1.408,0.314
	c-0.775,0.587-0.917,1.705-1.083,3C9.309,6.04,9.16,7.212,8.658,8.053C8.323,8.614,7.671,9.36,5.884,9.36H4.019
	c-1.242,0-2.252,1.01-2.252,2.251v8.512c0,1.24,1.01,2.25,2.252,2.25h13.586c0.618,0,1.226-0.211,1.71-0.596
	c0.485-0.384,0.829-0.927,0.97-1.529l1.869-7.99C22.348,11.436,22.156,10.584,21.631,9.922z M5.71,21.338H3.98
	c-0.453,0-0.821-0.367-0.821-0.82v-9.302c0-0.452,0.368-0.82,0.821-0.82H5.71V21.338z M21.049,11.911l-1.967,8.411
	c-0.141,0.599-0.668,1.017-1.283,1.017H6.745V10.686c1.335-0.255,2.339-0.935,2.994-2.031c0.697-1.168,0.876-2.576,1.035-3.818
	c0.072-0.562,0.139-1.092,0.246-1.499c0.115-0.436,0.234-0.564,0.28-0.599c0.053-0.04,0.152-0.049,0.296-0.028
	c0.792,0.118,1.343,0.477,1.682,1.099c0.696,1.275,0.388,3.427-0.274,4.894c-0.159,0.352-0.129,0.754,0.079,1.077
	s0.562,0.516,0.947,0.516h5.738c0.405,0,0.78,0.182,1.032,0.499C21.051,11.11,21.141,11.518,21.049,11.911z"/>
<path fill="#666666" d="M15.939,11.972"/>
</svg>
