<?xml version="1.0" encoding="utf-8"?>
<!-- Generator: Adobe Illustrator 16.0.0, SVG Export Plug-In . SVG Version: 6.00 Build 0)  -->
<!DOCTYPE svg PUBLIC "-//W3C//DTD SVG 1.1//EN" "http://www.w3.org/Graphics/SVG/1.1/DTD/svg11.dtd">
<svg version="1.1" id="图层_1" xmlns="http://www.w3.org/2000/svg" xmlns:xlink="http://www.w3.org/1999/xlink" x="0px" y="0px"
	 width="24px" height="24px" viewBox="0 0 24 24" enable-background="new 0 0 24 24" xml:space="preserve">
<path fill="#DDE1EA" d="M12,17.204c-2.419,0-5.479-5.89-5.479-9.5c0-3.021,2.458-5.479,5.479-5.479c3.021,0,5.479,2.458,5.479,5.479
	C17.479,11.314,14.419,17.204,12,17.204z"/>
<path fill="#FFFFFF" d="M9.483,8.011c0,1.391,1.127,2.518,2.517,2.518c1.391,0,2.518-1.127,2.518-2.518
	c0-1.39-1.127-2.518-2.517-2.518c-1.39,0-2.518,1.126-2.518,2.517C9.483,8.01,9.483,8.01,9.483,8.011z"/>
<path fill="#666666" d="M12,11.065c-1.683,0-3.052-1.369-3.052-3.052c0-1.683,1.369-3.054,3.052-3.054s3.052,1.369,3.052,3.051
	C15.052,9.694,13.683,11.065,12,11.065z M12,6.03c-1.092,0-1.98,0.889-1.98,1.98c0,1.092,0.888,1.98,1.98,1.98
	c1.092,0,1.98-0.888,1.98-1.98C13.98,6.919,13.092,6.03,12,6.03z M21.574,23.081H2.426c-0.49,0-0.942-0.246-1.209-0.658
	c-0.267-0.413-0.305-0.926-0.103-1.371L2.97,16.94c0.232-0.513,0.748-0.846,1.31-0.846h1.453c0.295,0,0.534,0.239,0.534,0.534
	s-0.239,0.534-0.534,0.534H4.28c-0.143,0-0.277,0.085-0.335,0.216l-1.854,4.113c-0.075,0.164-0.007,0.3,0.025,0.352
	c0.033,0.052,0.129,0.169,0.31,0.169h19.148c0.181,0,0.276-0.117,0.31-0.169c0.032-0.052,0.101-0.186,0.025-0.352l-1.856-4.111
	c-0.059-0.131-0.189-0.215-0.335-0.215h-1.453c-0.295,0-0.534-0.239-0.534-0.535c0-0.295,0.239-0.534,0.534-0.534h1.453
	c0.565,0,1.078,0.333,1.311,0.847l1.856,4.11c0.201,0.448,0.164,0.961-0.104,1.371C22.517,22.835,22.066,23.081,21.574,23.081z"/>
<path fill="#666666" d="M12,18.738c-1.858,0-3.701-1.413-5.187-3.979c-1.233-2.126-2.03-4.774-2.03-6.748
	c0-3.455,2.461-6.436,5.852-7.085c0.291-0.056,0.572,0.134,0.626,0.424c0.056,0.291-0.136,0.572-0.424,0.625
	C7.95,2.531,5.854,5.069,5.854,8.011c0,0.863,0.174,1.898,0.502,2.996c0.337,1.125,0.815,2.236,1.383,3.215
	c0.604,1.043,1.298,1.905,2.004,2.496c0.754,0.631,1.514,0.949,2.257,0.949s1.502-0.318,2.257-0.949
	c0.706-0.588,1.399-1.453,2.004-2.496c0.567-0.979,1.046-2.09,1.383-3.215c0.328-1.097,0.502-2.133,0.502-2.996
	c0-2.941-2.096-5.479-4.983-6.033c-0.29-0.056-0.48-0.335-0.424-0.625c0.057-0.291,0.335-0.48,0.626-0.424
	c3.392,0.649,5.853,3.628,5.853,7.085c0,1.971-0.797,4.622-2.03,6.748C15.701,17.325,13.858,18.738,12,18.738z"/>
</svg>
