<?xml version="1.0" encoding="utf-8"?>
<!-- Generator: Adobe Illustrator 16.0.0, SVG Export Plug-In . SVG Version: 6.00 Build 0)  -->
<!DOCTYPE svg PUBLIC "-//W3C//DTD SVG 1.1//EN" "http://www.w3.org/Graphics/SVG/1.1/DTD/svg11.dtd">
<svg version="1.1" id="图层_1" xmlns="http://www.w3.org/2000/svg" xmlns:xlink="http://www.w3.org/1999/xlink" x="0px" y="0px"
	 width="24px" height="24px" viewBox="0 0 24 24" enable-background="new 0 0 24 24" xml:space="preserve">
<path fill="#666666" d="M2.193,23.91c-0.342,0.254-0.824,0.182-1.078-0.159c-0.098-0.132-0.152-0.293-0.152-0.458V2.761
	c0-1.56,1.264-2.823,2.823-2.823h16.426c1.559,0,2.823,1.264,2.823,2.823v20.532c0,0.425-0.345,0.77-0.771,0.77
	c-0.187,0-0.368-0.068-0.509-0.192l-1.892-1.667l-2.277,1.664c-0.281,0.203-0.663,0.195-0.934-0.019l-2.072-1.646l-2.1,1.689
	c-0.301,0.243-0.735,0.225-1.015-0.043l-1.719-1.642l-2.448,1.674c-0.289,0.197-0.676,0.174-0.94-0.057l-1.862-1.622L2.193,23.91z
	 M21.496,2.761c0-0.708-0.575-1.283-1.283-1.283H3.787c-0.708,0-1.283,0.575-1.283,1.283v19.003l1.575-1.169
	c0.291-0.216,0.692-0.2,0.965,0.038l1.88,1.642l2.47-1.69c0.3-0.205,0.704-0.174,0.967,0.078l1.681,1.606l2.053-1.652
	c0.281-0.227,0.681-0.227,0.963-0.005l2.093,1.665l2.308-1.682c0.291-0.211,0.689-0.192,0.961,0.046l1.076,0.946V2.761z"/>
<path fill="#DDE1EA" d="M4.88,20.899 M9.82,20.903 M14.366,20.899 M19.337,20.9 M20.871,3.197c0-0.645-0.541-1.168-1.207-1.168
	H4.211c-0.667,0-1.207,0.523-1.207,1.168V20.5l1.481-1.063c0.273-0.197,0.651-0.184,0.908,0.034l1.769,1.495l2.324-1.54
	c0.283-0.187,0.663-0.158,0.91,0.071l1.582,1.464l1.931-1.506c0.265-0.205,0.641-0.205,0.905-0.004l1.97,1.517l2.171-1.531
	c0.273-0.192,0.648-0.176,0.903,0.041l1.013,0.862V3.197z"/>
<text transform="matrix(1 0 0 1 5.9375 15.0635)" fill="#666666" font-family="'LiHeiPro'" font-size="12">￥</text>
</svg>
