<?xml version="1.0" standalone="no"?><!DOCTYPE svg PUBLIC "-//W3C//DTD SVG 1.1//EN" "http://www.w3.org/Graphics/SVG/1.1/DTD/svg11.dtd"><svg t="1588909971522" class="icon" viewBox="0 0 1024 1024" version="1.1" xmlns="http://www.w3.org/2000/svg" p-id="3082" width="64" height="64" xmlns:xlink="http://www.w3.org/1999/xlink"><defs><style type="text/css"></style></defs><path d="M564.4 923.5H145.6c-13.9 0-25.2-11.3-25.2-25.2V124.7c0-13.9 11.3-25.2 25.2-25.2h418.7c13.9 0 25.2 11.3 25.2 25.2v773.7c0 13.8-11.3 25.1-25.1 25.1z m-404.9-39h391.1v-746H159.5v746z" p-id="3083" fill="#ffffff"></path><path d="M878.4 924.5H575.7c-13.9 0-25.2-11.3-25.2-25.2V248.7c0-13.9 11.3-25.2 25.2-25.2h302.7c13.9 0 25.2 11.3 25.2 25.2v650.6c-0.1 13.9-11.4 25.2-25.2 25.2z m-288.9-39h275v-623h-275v623zM315.3 252.5h-74.7c-3.1 0-5.7 2.5-5.7 5.7v74.7c0 3.1 2.5 5.7 5.7 5.7h74.7c3.1 0 5.7-2.5 5.7-5.7v-74.7c0-3.2-2.6-5.7-5.7-5.7zM469.3 252.5h-74.7c-3.1 0-5.7 2.5-5.7 5.7v74.7c0 3.1 2.5 5.7 5.7 5.7h74.7c3.1 0 5.7-2.5 5.7-5.7v-74.7c0-3.2-2.6-5.7-5.7-5.7z" p-id="3084" fill="#ffffff"></path><path d="M769 462V354.2c0-4.5-2.7-8.2-5.9-8.2h-78.2c-3.3 0-5.9 3.7-5.9 8.2V462c0 4.5 2.7 8.2 5.9 8.2h78.2c3.3 0 5.9-3.7 5.9-8.2zM769 684.3V576.5c0-4.5-2.7-8.2-5.9-8.2h-78.2c-3.3 0-5.9 3.7-5.9 8.2v107.8c0 4.5 2.7 8.2 5.9 8.2h78.2c3.3 0 5.9-3.7 5.9-8.2z" p-id="3085" fill="#ffffff"></path><path d="M315.3 429.5h-74.7c-3.1 0-5.7 2.5-5.7 5.7v74.7c0 3.1 2.5 5.7 5.7 5.7h74.7c3.1 0 5.7-2.5 5.7-5.7v-74.7c0-3.2-2.6-5.7-5.7-5.7zM469.3 429.5h-74.7c-3.1 0-5.7 2.5-5.7 5.7v74.7c0 3.1 2.5 5.7 5.7 5.7h74.7c3.1 0 5.7-2.5 5.7-5.7v-74.7c0-3.2-2.6-5.7-5.7-5.7z" p-id="3086" fill="#ffffff"></path><path d="M315.3 606.5h-74.7c-3.1 0-5.7 2.5-5.7 5.7v74.7c0 3.1 2.5 5.7 5.7 5.7h74.7c3.1 0 5.7-2.5 5.7-5.7v-74.7c0-3.2-2.6-5.7-5.7-5.7zM469.3 606.5h-74.7c-3.1 0-5.7 2.5-5.7 5.7v74.7c0 3.1 2.5 5.7 5.7 5.7h74.7c3.1 0 5.7-2.5 5.7-5.7v-74.7c0-3.2-2.6-5.7-5.7-5.7z" p-id="3087" fill="#ffffff"></path></svg>