<?xml version="1.0" encoding="utf-8"?>
<!-- Generator: Adobe Illustrator 16.0.0, SVG Export Plug-In . SVG Version: 6.00 Build 0)  -->
<!DOCTYPE svg PUBLIC "-//W3C//DTD SVG 1.1//EN" "http://www.w3.org/Graphics/SVG/1.1/DTD/svg11.dtd">
<svg version="1.1" id="图层_1" xmlns="http://www.w3.org/2000/svg" xmlns:xlink="http://www.w3.org/1999/xlink" x="0px" y="0px"
	 width="24px" height="24px" viewBox="0 0 24 24" enable-background="new 0 0 24 24" xml:space="preserve">
<path fill="#FFFFFF" d="M23.578,10.79l-3.44,3.439c-0.229,0.228-0.332,0.557-0.279,0.879l0.813,4.856
	c0.107,0.643-0.391,1.163-0.954,1.163c-0.149,0-0.303-0.037-0.451-0.117l-4.254-2.293c-0.282-0.151-0.621-0.152-0.902-0.001
	l-4.255,2.291c-0.139,0.074-0.294,0.113-0.452,0.113c-0.564,0-1.064-0.529-0.957-1.171l0.815-4.855
	c0.016-1.005-0.915-0.356-0.915-0.356c-0.039-0.014-0.384-0.019-0.693,0.215l-2.501,1.611c-0.136,0.102-0.766,0.456-0.913,0.456
	c-0.379,0-0.464-0.476-0.456-0.913v-3.195c0.004-0.24-0.229-0.478-0.422-0.617l-2.929-2.094c-0.489-0.351-0.364-1.118,0.211-1.299
	l3.446-1.084c0.229-0.072,0.409-0.255,0.48-0.486L5.66,3.855c0.105-0.334,0.401-0.53,0.7-0.53c0.22,0,0.441,0.071,0.587,0.281
	l2.063,2.91C9.145,6.709,9.365,6.715,9.6,6.715H9.61l1.94,0.082c-0.144,0.281-0.408,0.584-0.715,0.63L8.189,7.711L6.52,5.154
	L5.898,7.783C5.956,7.603,5.677,8.829,4.496,9.2l-2.54,0.519l2.199,1.392c0.58,0.415,1.01,1.077,0.996,1.802v2.282l1.679-1.406
	c0.768-0.577,2.082-0.41,1.516-0.419L5.607,10.63c0.292,0.293-1.153-0.824,0.456-1.369l3.195-0.456l1.369-0.457
	c0.51-0.076,1.357-1.794,0.913-0.913l2.151-4.01c0.157-0.338,0.496-0.555,0.869-0.554c0.346,0,0.69,0.185,0.869,0.554l2.127,4.418
	c0.138,0.291,0.41,0.494,0.729,0.543l4.757,0.708C23.837,9.214,24.153,10.216,23.578,10.79z M18.086,9.809
	c-0.77-0.114-1.435-0.617-1.78-1.334l-1.745-3.635l-2.107,3.509c0.185-0.385-0.913,1.37-0.913,1.37l-4.388,0.674l3.041,2.672
	l0.459,2.021c-0.335,1.478-0.936,4.674-0.936,4.674l3.713-2.303c-0.331,0.178,0.151-0.167,1.103-0.171
	c-1.048,0.013,0.703-0.068,1.126,0.159l3.643,1.858l-0.914-5.021c0.059,0.347-0.271-0.04,0.779-1.09l2.804-2.803L18.086,9.809z"/>
</svg>
