<?xml version="1.0" encoding="utf-8"?>
<!-- Generator: Adobe Illustrator 16.0.0, SVG Export Plug-In . SVG Version: 6.00 Build 0)  -->
<!DOCTYPE svg PUBLIC "-//W3C//DTD SVG 1.1//EN" "http://www.w3.org/Graphics/SVG/1.1/DTD/svg11.dtd">
<svg version="1.1" id="图层_1" xmlns="http://www.w3.org/2000/svg" xmlns:xlink="http://www.w3.org/1999/xlink" x="0px" y="0px"
	 width="24px" height="24px" viewBox="0 0 24 24" enable-background="new 0 0 24 24" xml:space="preserve">
<path fill="#DDE1EA" d="M10.135,11.152l-6.962,0.064L6.638,7.82L10.135,11.152z"/>
<path fill="#DDE1EA" d="M11.391,13.694l0.064,6.962l-3.396-3.465L11.391,13.694z"/>
<path fill="#DDE1EA" d="M12.601,10.146l-0.06-6.708l3.131,3.339L12.601,10.146z"/>
<path fill="#DDE1EA" d="M14.106,12.74l6.743-0.061l-3.356,3.209L14.106,12.74z"/>
<path fill="#666666" d="M0.437,12.382l6-5.727l6.108,5.672L0.437,12.382z M6.491,8.073l-3.436,3.272l6.873-0.054L6.491,8.073z"/>
<path fill="#666666" d="M11.618,12.764L11.509,0.709l5.782,6L11.618,12.764z M12.545,3.273l0.055,6.873l3.219-3.491L12.545,3.273z"
	/>
<path fill="#666666" d="M12.437,23.291l-5.782-6l5.619-6.109L12.437,23.291z M8.073,17.346l3.273,3.381l-0.055-6.872L8.073,17.346z"
	/>
<path fill="#666666" d="M17.51,17.346l-6.055-5.673l12.109-0.055L17.51,17.346z M14.072,12.654l3.438,3.219l3.436-3.273
	L14.072,12.654z"/>
</svg>
