<?xml version="1.0" encoding="utf-8"?>
<!-- Generator: Adobe Illustrator 16.0.0, SVG Export Plug-In . SVG Version: 6.00 Build 0)  -->
<!DOCTYPE svg PUBLIC "-//W3C//DTD SVG 1.1//EN" "http://www.w3.org/Graphics/SVG/1.1/DTD/svg11.dtd">
<svg version="1.1" id="图层_1" xmlns="http://www.w3.org/2000/svg" xmlns:xlink="http://www.w3.org/1999/xlink" x="0px" y="0px"
	 width="24px" height="24px" viewBox="0 0 24 24" enable-background="new 0 0 24 24" xml:space="preserve">
<path fill="#DDE1EA" d="M10.485,9.151h7.872c1.008,0,1.824,0.816,1.824,1.824v7.873c0,1.008-0.816,1.824-1.824,1.824h-7.872
	c-1.008,0-1.824-0.816-1.824-1.824v-7.873C8.662,9.967,9.478,9.151,10.485,9.151z"/>
<path fill="#231815" d="M9.871,4.86H8.959c-0.014,0-0.024-0.009-0.024-0.024V1.944c0-0.014,0.01-0.024,0.024-0.024h0.912
	c0.015,0,0.024,0.01,0.024,0.024v2.892C9.895,4.851,9.886,4.86,9.871,4.86z M7.015,9.156V8.244c0-0.015,0.01-0.024,0.024-0.024
	h9.818c0.015,0,0.024,0.009,0.024,0.024v0.912c0,0.015-0.01,0.024-0.024,0.024H7.039C7.027,9.18,7.015,9.17,7.015,9.156z
	 M7.015,12.695v-0.911c0-0.015,0.01-0.024,0.024-0.024h7.358c0.015,0,0.024,0.009,0.024,0.024v0.911c0,0.016-0.01,0.025-0.024,0.025
	H7.039C7.027,12.721,7.015,12.711,7.015,12.695z M7.015,16.236v-0.912c0-0.015,0.01-0.024,0.024-0.024h4.752
	c0.015,0,0.024,0.01,0.024,0.024v0.912c0,0.014-0.01,0.023-0.024,0.023H7.039C7.027,16.26,7.015,16.25,7.015,16.236z M10.855,2.88
	h3.106v0.96h-3.106V2.88z"/>
<path fill="#231815" d="M18.168,2.88h-1.327v0.96h1.327c0.795,0,1.439,0.646,1.439,1.44v13.441c0,0.793-0.645,1.439-1.439,1.439
	H6.648c-0.794,0-1.44-0.646-1.44-1.439V5.28c0-0.794,0.646-1.44,1.44-1.44h1.327V2.88H6.648c-1.322,0-2.4,1.078-2.4,2.4v13.441
	c0,1.322,1.078,2.399,2.4,2.399h11.52c1.322,0,2.4-1.077,2.4-2.399V5.28C20.568,3.958,19.49,2.88,18.168,2.88z"/>
<path fill="#231815" d="M15.857,4.86h-0.912c-0.016,0-0.024-0.009-0.024-0.024V1.944c0-0.014,0.009-0.024,0.024-0.024h0.912
	c0.014,0,0.023,0.01,0.023,0.024v2.892C15.881,4.851,15.869,4.86,15.857,4.86z"/>
</svg>
