<?xml version="1.0" encoding="utf-8"?>
<!-- Generator: Adobe Illustrator 16.0.0, SVG Export Plug-In . SVG Version: 6.00 Build 0)  -->
<!DOCTYPE svg PUBLIC "-//W3C//DTD SVG 1.1//EN" "http://www.w3.org/Graphics/SVG/1.1/DTD/svg11.dtd">
<svg version="1.1" id="图层_1" xmlns="http://www.w3.org/2000/svg" xmlns:xlink="http://www.w3.org/1999/xlink" x="0px" y="0px"
	 width="24px" height="24px" viewBox="0 0 24 24" enable-background="new 0 0 24 24" xml:space="preserve">
<path fill="#DDE1EA" d="M21.905,20.324c0,0.401-0.467,0.725-1.042,0.725H3.101c-0.575,0-1.042-0.323-1.042-0.725V7.992
	c0-0.399,0.466-0.724,1.042-0.724h17.763c0.575,0,1.042,0.325,1.042,0.724V20.324z"/>
<path fill="#666666" d="M21.372,5.255h-0.23l-1.727-2.988c-0.732-1.271-2.356-1.707-3.628-0.973h-0.001l-6.86,3.961H2.629
	c-1.467,0-2.656,1.189-2.656,2.656l0,0v12.495c0,1.468,1.189,2.656,2.656,2.656l0,0h18.743c1.466,0,2.654-1.188,2.654-2.656l0,0
	V7.911C24.026,6.444,22.838,5.255,21.372,5.255L21.372,5.255z M16.672,2.829c0.424-0.245,0.965-0.1,1.211,0.323l0,0l1.215,2.103
	h-6.629L16.672,2.829z M21.372,21.292H2.629c-0.489,0-0.885-0.396-0.885-0.886V7.911c0-0.489,0.396-0.886,0.885-0.886l0,0h18.743
	c0.487,0,0.884,0.397,0.884,0.886v2.474H13.88c-2.084,0.041-3.741,1.764-3.699,3.849c0.041,2.026,1.673,3.66,3.699,3.7h8.376v2.473
	C22.256,20.896,21.859,21.292,21.372,21.292z M22.256,16.161H13.88c-1.106-0.028-1.979-0.951-1.949-2.057
	c0.029-1.064,0.886-1.92,1.949-1.948h8.376V16.161z"/>
<path fill="#666666" d="M15.385,14.146c0,0.753,0.61,1.363,1.363,1.363s1.363-0.61,1.363-1.363s-0.61-1.362-1.363-1.362
	S15.385,13.393,15.385,14.146z"/>
</svg>
