<?xml version="1.0" encoding="utf-8"?>
<!-- Generator: Adobe Illustrator 16.0.0, SVG Export Plug-In . SVG Version: 6.00 Build 0)  -->
<!DOCTYPE svg PUBLIC "-//W3C//DTD SVG 1.1//EN" "http://www.w3.org/Graphics/SVG/1.1/DTD/svg11.dtd">
<svg version="1.1" id="图层_1" xmlns="http://www.w3.org/2000/svg" xmlns:xlink="http://www.w3.org/1999/xlink" x="0px" y="0px"
	 width="24px" height="24px" viewBox="0 0 24 24" enable-background="new 0 0 24 24" xml:space="preserve">
<path fill="#666666" d="M20.454,8.981c0.005,0.016,0.007,0.033,0.012,0.047c-1.093-3.643-4.47-6.305-8.461-6.305
	c-3.992,0-7.369,2.662-8.461,6.305c0.004-0.017,0.007-0.033,0.012-0.047c-1.174,0.271-2.053,1.319-2.053,2.576
	s0.879,2.304,2.053,2.576c-0.002-0.007-0.002-0.012-0.005-0.019c0.084,0.248,0.349,0.387,0.603,0.313
	c0.26-0.077,0.408-0.352,0.328-0.611c-0.218-0.729-0.331-1.491-0.331-2.259c0-4.329,3.522-7.852,7.852-7.852
	c4.329,0,7.851,3.522,7.851,7.852c0,3.562-2.386,6.572-5.644,7.531c-0.265-0.398-0.715-0.659-1.226-0.659h-1.962
	c-0.813,0-1.472,0.659-1.472,1.472c0,0.813,0.659,1.473,1.472,1.473h1.962c0.767,0,1.388-0.586,1.458-1.332
	c2.88-0.829,5.161-3.086,6.021-5.953c-0.004,0.017-0.007,0.033-0.012,0.047c1.172-0.271,2.047-1.314,2.051-2.566V11.55
	C22.5,10.294,21.623,9.251,20.454,8.981z"/>
<path fill="#666666" d="M16.443,13.572c0.085-0.241-0.044-0.504-0.285-0.588c-0.242-0.082-0.507,0.045-0.589,0.286
	c-0.516,1.488-1.922,2.489-3.499,2.489c-1.58,0-2.988-1.004-3.501-2.499c-0.082-0.241-0.347-0.37-0.588-0.286
	c-0.241,0.082-0.37,0.348-0.286,0.589c0.643,1.868,2.4,3.122,4.376,3.122C14.041,16.683,15.799,15.432,16.443,13.572z"/>
<path fill="#DDE1EA" d="M4.557,11.356c0-4.105,3.34-7.445,7.445-7.445s7.445,3.34,7.445,7.445c0,0-3.996-0.11-4.767-0.165
	c-1.652-0.118-2.899-0.691-5.806-0.504C7.735,10.761,4.557,11.356,4.557,11.356z"/>
</svg>
