<?xml version="1.0" encoding="utf-8"?>
<!-- Generator: Adobe Illustrator 16.0.0, SVG Export Plug-In . SVG Version: 6.00 Build 0)  -->
<!DOCTYPE svg PUBLIC "-//W3C//DTD SVG 1.1//EN" "http://www.w3.org/Graphics/SVG/1.1/DTD/svg11.dtd">
<svg version="1.1" id="图层_1" xmlns="http://www.w3.org/2000/svg" xmlns:xlink="http://www.w3.org/1999/xlink" x="0px" y="0px"
	 width="24px" height="24px" viewBox="0 0 24 24" enable-background="new 0 0 24 24" xml:space="preserve">
<path fill="#DDE1EA" d="M20.449,19.141c0,0.696-0.52,1.26-1.158,1.26H6.167c-0.64,0-1.158-0.563-1.158-1.26V4.86
	c0-0.696,0.518-1.26,1.158-1.26h13.124c0.639,0,1.158,0.564,1.158,1.26V19.141z"/>
<path fill="#666666" d="M19.5,1.5H6c-1.657,0-3,1.343-3,3V6H2.25C1.836,6,1.5,6.336,1.5,6.75S1.836,7.5,2.25,7.5H3v3.75H2.25
	c-0.414,0-0.75,0.336-0.75,0.75s0.336,0.75,0.75,0.75H3v3.75H2.25c-0.414,0-0.75,0.336-0.75,0.75S1.836,18,2.25,18H3v1.5
	c0,1.656,1.343,3,3,3h13.5c1.656,0,3-1.344,3-3v-15C22.5,2.843,21.156,1.5,19.5,1.5z M21,19.5c0,0.828-0.672,1.5-1.5,1.5H6
	c-0.829,0-1.5-0.672-1.5-1.5V18h0.75C5.664,18,6,17.664,6,17.25S5.664,16.5,5.25,16.5H4.5v-3.75h0.75C5.664,12.75,6,12.414,6,12
	s-0.336-0.75-0.75-0.75H4.5V7.5h0.75C5.664,7.5,6,7.164,6,6.75S5.664,6,5.25,6H4.5V4.5C4.5,3.671,5.171,3,6,3h13.5
	C20.328,3,21,3.671,21,4.5V19.5z"/>
<path fill="#666666" d="M12.75,13.5c-2.485,0-4.5,2.015-4.5,4.5h1.5c0-1.656,1.343-3,3-3c1.656,0,3,1.344,3,3h1.5
	C17.25,15.515,15.235,13.5,12.75,13.5z M12.75,12c1.657,0,3-1.344,3-3.001s-1.344-3-3.002-3l0,0c-1.657,0-3,1.344-3,3.001
	S11.093,12,12.75,12z M12.75,7.512c0.822,0,1.488,0.665,1.488,1.487c0.001,0.822-0.665,1.488-1.486,1.488c-0.001,0-0.002,0-0.002,0
	c-0.822,0-1.488-0.666-1.488-1.488S11.928,7.512,12.75,7.512L12.75,7.512z"/>
</svg>
