<?xml version="1.0" standalone="no"?><!DOCTYPE svg PUBLIC "-//W3C//DTD SVG 1.1//EN" "http://www.w3.org/Graphics/SVG/1.1/DTD/svg11.dtd"><svg t="1588926831918" class="icon" viewBox="0 0 1024 1024" version="1.1" xmlns="http://www.w3.org/2000/svg" p-id="6607" xmlns:xlink="http://www.w3.org/1999/xlink" width="64" height="64"><defs><style type="text/css"></style></defs><path d="M347 655.1c-76.9 0-139.4-62.5-139.4-139.4S270.1 376.3 347 376.3s139.4 62.5 139.4 139.4c0.1 76.8-62.5 139.4-139.4 139.4z m0-257.9c-65.3 0-118.4 53.1-118.4 118.4S281.7 634.1 347 634.1c65.3 0 118.4-53.1 118.4-118.4s-53-118.5-118.4-118.5zM689.5 655.1c-76.9 0-139.4-62.5-139.4-139.4s62.5-139.4 139.4-139.4 139.4 62.5 139.4 139.4c0 76.8-62.5 139.4-139.4 139.4z m0-257.9c-65.3 0-118.4 53.1-118.4 118.4S624.2 634 689.5 634c65.3 0 118.4-53.1 118.4-118.4s-53.1-118.4-118.4-118.4z" fill="#ffffff" p-id="6608"></path><path d="M152.1 528.5c19.2 2.1 38.4 2.6 57.7 1.3 15-1 15.1-24.4 0-23.5-19.3 1.2-38.5 0.8-57.7-1.3-14.9-1.6-14.8 21.8 0 23.5zM484.1 534.9c24.4-5.2 48.9-6.5 73.7-4.4 15 1.3 15-22.2 0-23.5-27-2.3-53.5-0.4-80 5.3-14.7 3.1-8.4 25.7 6.3 22.6zM818.9 522.1c19.2 1.5 38.3 3.9 57.3 7.4 14.8 2.7 21.1-19.9 6.2-22.6-21-3.8-42.2-6.6-63.5-8.2-15.1-1.2-15 22.3 0 23.4z" fill="#ffffff" p-id="6609"></path><path d="M716 438.1c-20.8 1-31.7 20.4-42.8 35.9-15.8 22.2-29.2 45.7-40.8 70.3-6.4 13.6 13.8 25.5 20.3 11.8 8-17.1 16.9-33.8 27-49.8 6.5-10.3 23.2-44.2 36.3-44.8 15-0.6 15.1-24.1 0-23.4zM684.4 516.8c-3.4 7.9-7.3 15.6-11.6 23-7.7 13 12.6 24.9 20.3 11.8 4.4-7.4 8.2-15.1 11.6-23 2.5-5.8 1.7-12.6-4.2-16-5-2.9-13.6-1.7-16.1 4.2zM374.5 436.1c-16.7 14.2-29.4 32.5-43.8 48.9-15.5 17.6-31.9 34.2-49 50.2-11 10.3 5.6 26.9 16.6 16.6 17.1-16 33.5-32.7 49-50.2 14.5-16.4 27.1-34.6 43.8-48.9 11.5-9.8-5.2-26.3-16.6-16.6zM344.3 515.4c-2.7 7.1-6.3 13.8-10.2 20.3-7.9 12.9 12.4 24.7 20.3 11.8 5-8.2 9.1-16.9 12.6-25.9 2.3-5.9-2.5-12.9-8.2-14.4-6.7-1.8-12.2 2.2-14.5 8.2z" fill="#ffffff" p-id="6610"></path></svg>