<?xml version="1.0" encoding="utf-8"?>
<!-- Generator: Adobe Illustrator 16.0.0, SVG Export Plug-In . SVG Version: 6.00 Build 0)  -->
<!DOCTYPE svg PUBLIC "-//W3C//DTD SVG 1.1//EN" "http://www.w3.org/Graphics/SVG/1.1/DTD/svg11.dtd">
<svg version="1.1" id="图层_1" xmlns="http://www.w3.org/2000/svg" xmlns:xlink="http://www.w3.org/1999/xlink" x="0px" y="0px"
	 width="24px" height="24px" viewBox="0 0 24 24" enable-background="new 0 0 24 24" xml:space="preserve">
<path fill="#DDE1EA" d="M22.146,9.281H1.855V21.56c0,0.433,0.545,0.784,1.217,0.784h17.855c0.671,0,1.218-0.352,1.218-0.784"/>
<path fill="#666666" d="M24,8.297c0-0.042-0.005-0.084-0.012-0.126V3.703c0-1.214-0.989-2.203-2.203-2.203h-3.082V0.703
	C18.703,0.316,18.387,0,18,0s-0.703,0.316-0.703,0.703V1.5H6.703V0.703C6.703,0.316,6.387,0,6,0S5.297,0.316,5.297,0.703V1.5H2.215
	c-1.214,0-2.203,0.989-2.203,2.203V8.17C0.005,8.212,0,8.255,0,8.297s0.005,0.084,0.012,0.126v13.374
	C0.012,23.011,1.001,24,2.215,24h19.57c1.214,0,2.203-0.989,2.203-2.203V8.423C23.995,8.381,24,8.339,24,8.297z M2.215,2.906h3.082
	v0.891C5.297,4.184,5.613,4.5,6,4.5s0.703-0.316,0.703-0.703V2.906h10.594v0.891C17.297,4.184,17.613,4.5,18,4.5
	s0.703-0.316,0.703-0.703V2.906h3.082c0.438,0,0.797,0.358,0.797,0.797v3.891H1.418V3.703C1.418,3.265,1.776,2.906,2.215,2.906z
	 M21.785,22.594H2.215c-0.438,0-0.797-0.358-0.797-0.797V9h21.164v12.797C22.582,22.235,22.224,22.594,21.785,22.594z"/>
<path fill="#666666" d="M16.343,11.991l-5.934,5.934l-2.751-2.751c-0.274-0.274-0.722-0.274-0.994,0
	c-0.274,0.273-0.274,0.722,0,0.993l3.249,3.249c0.178,0.178,0.429,0.238,0.659,0.188c0.005,0,0.009-0.003,0.014-0.003
	c0.12-0.03,0.229-0.091,0.323-0.183l6.429-6.434c0.274-0.274,0.274-0.722,0-0.994C17.063,11.716,16.615,11.716,16.343,11.991z"/>
<path fill="#DDE1EA" d="M22.582,9"/>
</svg>
