<?xml version="1.0" encoding="utf-8"?>
<!-- Generator: Adobe Illustrator 16.0.0, SVG Export Plug-In . SVG Version: 6.00 Build 0)  -->
<!DOCTYPE svg PUBLIC "-//W3C//DTD SVG 1.1//EN" "http://www.w3.org/Graphics/SVG/1.1/DTD/svg11.dtd">
<svg version="1.1" id="图层_1" xmlns="http://www.w3.org/2000/svg" xmlns:xlink="http://www.w3.org/1999/xlink" x="0px" y="0px"
	 width="24px" height="24px" viewBox="0 0 24 24" enable-background="new 0 0 24 24" xml:space="preserve">
<path fill="#666666" d="M22.5,21h-21C0.675,21,0,20.325,0,19.5v-15C0,3.675,0.675,3,1.5,3h21C23.325,3,24,3.675,24,4.5v15
	C24,20.325,23.325,21,22.5,21z M23.25,4.5c0-0.45-0.3-0.75-0.75-0.75h-21c-0.45,0-0.75,0.3-0.75,0.75v15c0,0.45,0.3,0.75,0.75,0.75
	h21c0.45,0,0.75-0.3,0.75-0.75V4.5z M13.5,9.75H21v0.75h-7.5V9.75z M13.5,7.5H21v0.75h-7.5V7.5z M14.475,14.7l1.875,0.975
	L19.95,12.9c0.225-0.226,0.6-0.226,0.825,0c0.225,0.225,0.225,0.6,0,0.824l-4.051,4.051C16.65,17.925,16.5,18,16.35,18
	c-0.149,0-0.3-0.075-0.449-0.15l-2.325-2.324c-0.226-0.226-0.226-0.601,0-0.825C13.875,14.4,14.25,14.4,14.475,14.7z M12,16.875
	c0,0.15,0,0.225-0.075,0.375h-0.75c0-0.15,0.075-0.225,0.075-0.375C11.25,15,9.6,13.5,7.5,13.5S3.75,15,3.75,16.875
	c0,0.15,0,0.225,0.075,0.375h-0.75C3,17.1,3,17.025,3,16.875c0-1.8,1.2-3.225,2.925-3.825C5.1,12.525,4.5,11.55,4.5,10.5
	c0-1.65,1.35-3,3-3s3,1.35,3,3c0,1.05-0.6,2.025-1.425,2.55C10.8,13.65,12,15.075,12,16.875z M9.75,10.5
	c0-1.275-0.975-2.25-2.25-2.25S5.25,9.225,5.25,10.5s0.975,2.25,2.25,2.25S9.75,11.775,9.75,10.5z"/>
</svg>
