<?xml version="1.0" encoding="utf-8"?>
<!-- Generator: Adobe Illustrator 16.0.0, SVG Export Plug-In . SVG Version: 6.00 Build 0)  -->
<!DOCTYPE svg PUBLIC "-//W3C//DTD SVG 1.1//EN" "http://www.w3.org/Graphics/SVG/1.1/DTD/svg11.dtd">
<svg version="1.1" id="图层_1" xmlns="http://www.w3.org/2000/svg" xmlns:xlink="http://www.w3.org/1999/xlink" x="0px" y="0px"
	 width="24px" height="24px" viewBox="0 0 24 24" enable-background="new 0 0 24 24" xml:space="preserve">
<circle fill="#DDE1EA" cx="12" cy="12" r="8.418"/>
<path fill="#666666" d="M1.507,12.34v-0.657c0.006-0.046,0.012-0.092,0.018-0.138c0.067-0.554,0.098-1.115,0.207-1.66
	c0.33-1.647,1.031-3.129,2.085-4.439C4.953,4.033,6.361,2.979,8.04,2.29c1.003-0.412,2.047-0.661,3.131-0.739
	c0.179-0.013,0.357-0.029,0.536-0.043h0.586c0.054,0.006,0.107,0.016,0.162,0.018c0.958,0.038,1.893,0.205,2.802,0.504
	c1.935,0.637,3.556,1.74,4.847,3.312c1.371,1.669,2.154,3.586,2.348,5.741c0.09,1.003,0.035,1.998-0.161,2.984
	c-0.229,1.155-0.644,2.24-1.243,3.254c-0.994,1.68-2.35,2.992-4.066,3.919c-1.764,0.952-3.653,1.356-5.656,1.231
	c-1.008-0.063-1.991-0.256-2.934-0.616C5.484,20.74,3.43,18.742,2.248,15.86c-0.394-0.96-0.618-1.962-0.697-2.997
	C1.538,12.688,1.521,12.514,1.507,12.34L1.507,12.34z M12.004,21.197c5.104-0.018,9.194-4.126,9.188-9.197
	c-0.006-5.091-4.107-9.179-9.183-9.185C6.934,2.81,2.819,6.922,2.814,12.002C2.811,17.074,6.93,21.195,12.004,21.197L12.004,21.197z
	"/>
<path fill="#666666" d="M6.767,17.902c-0.493-0.015-0.805-0.5-0.6-0.955c0.331-0.739,0.669-1.475,1.004-2.212
	c0.739-1.626,1.48-3.252,2.215-4.88c0.101-0.223,0.248-0.374,0.472-0.476c2.353-1.065,4.703-2.135,7.055-3.203
	c0.436-0.199,0.87-0.005,0.971,0.432c0.039,0.172-0.006,0.33-0.078,0.486c-0.97,2.132-1.939,4.265-2.908,6.397
	c-0.105,0.23-0.213,0.46-0.314,0.692c-0.078,0.179-0.202,0.304-0.381,0.385c-2.38,1.08-4.759,2.163-7.14,3.243
	C6.969,17.854,6.865,17.872,6.767,17.902L6.767,17.902z M15.918,8.075c-0.055,0.021-0.079,0.029-0.103,0.04
	c-1.733,0.788-3.467,1.575-5.199,2.366c-0.058,0.026-0.111,0.091-0.138,0.15c-0.656,1.435-1.309,2.872-1.962,4.31
	c-0.141,0.311-0.282,0.623-0.436,0.961c0.066-0.027,0.106-0.041,0.146-0.06c1.713-0.778,3.426-1.556,5.137-2.339
	c0.063-0.027,0.124-0.09,0.152-0.152c0.442-0.961,0.879-1.926,1.316-2.889C15.189,9.676,15.547,8.89,15.918,8.075L15.918,8.075z"/>
<path fill="#666666" d="M12.654,12.01c-0.004,0.364-0.301,0.652-0.666,0.644c-0.36-0.006-0.643-0.294-0.642-0.655
	s0.301-0.658,0.66-0.654C12.367,11.349,12.657,11.647,12.654,12.01L12.654,12.01z"/>
</svg>
