<?xml version="1.0" standalone="no"?><!DOCTYPE svg PUBLIC "-//W3C//DTD SVG 1.1//EN" "http://www.w3.org/Graphics/SVG/1.1/DTD/svg11.dtd"><svg t="1575542381462" class="icon" viewBox="0 0 1024 1024" version="1.1" xmlns="http://www.w3.org/2000/svg" p-id="47288" xmlns:xlink="http://www.w3.org/1999/xlink" width="24" height="24"><defs><style type="text/css"></style></defs><path d="M309.270261 755.333565l-31.47687-31.47687L868.752696 132.897391l31.47687 31.47687L309.270261 755.333565zM168.002783 290.05913l0 512c0 24.576 19.923478 44.521739 44.521739 44.521739l534.26087 0c24.598261 0 44.521739-19.945739 44.521739-44.521739l0-311.652174 44.521739 0 0 311.652174c0 49.174261-39.869217 89.043478-89.043478 89.043478L212.524522 891.102609c-49.174261 0-89.043478-39.869217-89.043478-89.043478l0-512c0-49.174261 39.869217-89.043478 89.043478-89.043478l333.913043 0 0 44.521739L212.524522 245.537391C187.926261 245.537391 168.002783 265.46087 168.002783 290.05913z" p-id="47289" fill="#888888"></path></svg>