<?xml version="1.0" standalone="no"?><!DOCTYPE svg PUBLIC "-//W3C//DTD SVG 1.1//EN" "http://www.w3.org/Graphics/SVG/1.1/DTD/svg11.dtd"><svg t="1587462305497" class="icon" viewBox="0 0 1024 1024" version="1.1" xmlns="http://www.w3.org/2000/svg" p-id="20183" width="64" height="64" xmlns:xlink="http://www.w3.org/1999/xlink"><defs><style type="text/css"></style></defs><path d="M909.789792 106.757848L452.276579 564.787183a70.421939 70.421939 0 0 1-30.27914 18.580381c-9.921006 2.580608-18.752422 1.433671-24.315067-4.128974-11.067943-11.067943-4.587748-35.55505 14.508755-54.7089l457.513213-457.971988c19.039156-19.096503 43.526263-25.634044 54.594207-14.508754 11.067943 11.12529 4.587748 35.612397-14.508755 54.7089zM115.765231 115.47457c-56.601346-6.136114-57.346856 48.630133-57.346856 57.346855v688.162267c0 8.716722 5.677339 60.959707 57.346856 57.346855h688.162266c54.7089 2.695302 57.346856-48.630133 57.346855-57.346855V402.208847l57.46155-15.999772v502.415801c0 48.056665-39.053209 87.16722-87.109874 87.16722H87.952006a87.224567 87.224567 0 0 1-87.109874-87.16722V145.0082c0-48.056665 39.053209-87.16722 87.109874-87.16722h502.186413L574.540075 115.47457H115.765231z" p-id="20184" fill="#333333"></path></svg>