<?xml version="1.0" standalone="no"?><!DOCTYPE svg PUBLIC "-//W3C//DTD SVG 1.1//EN" "http://www.w3.org/Graphics/SVG/1.1/DTD/svg11.dtd"><svg t="1587458293352" class="icon" viewBox="0 0 1024 1024" version="1.1" xmlns="http://www.w3.org/2000/svg" p-id="2812" width="64" height="64" xmlns:xlink="http://www.w3.org/1999/xlink"><defs><style type="text/css"></style></defs><path d="M899.1875 664.34375l-383.90625 189.375-383.90625-189.375c-17.625-8.625-38.90625-1.3125-47.53125 16.3125-8.625 17.625-1.3125 38.90625 16.3125 47.53125l399.46875 195.46875c4.3125 1.96875 9 3.09375 13.6875 3.28125 4.78125-0.1875 9.375-1.3125 13.6875-3.28125l399.46875-195.46875c13.875-9.65625 18.9375-27.65625 12.375-43.125-6.46875-15.46875-23.15625-24.09375-39.65625-20.71875z m0 0" p-id="2813" fill="#333333"></path><path d="M899.1875 481.15625l-383.90625 189.375-383.90625-189.375c-11.4375-5.625-24.9375-4.6875-35.4375 2.4375-10.5 7.125-16.5 19.3125-15.65625 31.96875 0.84375 12.65625 8.4375 23.90625 19.875 29.53125l399.46875 195.46875c4.3125 1.96875 9 3.09375 13.6875 3.28125 4.78125-0.1875 9.375-1.3125 13.6875-3.28125l399.46875-195.46875c14.15625-2.90625 25.03125-14.0625 27.75-28.21875 2.625-14.15625-3.5625-28.5-15.65625-36.375-11.90625-7.875-27.5625-7.59375-39.375 0.65625z m0 0" p-id="2814" fill="#333333"></path><path d="M950.28125 326.84375c0.46875-13.96875-7.3125-27-19.875-33.09375L530.9375 98.1875h-7.125l-8.53125-3.28125h-13.6875L100.15625 293.75c-12.5625 6.1875-20.34375 19.125-19.875 33.09375-0.46875 13.96875 7.3125 27 19.875 33.09375l399.46875 198.375c5.15625 1.125 10.5 1.125 15.65625 0 4.6875 0.9375 9.5625 0.9375 14.15625 0l399.46875-195.46875c12.5625-6.1875 20.34375-19.125 19.875-33.09375l1.5-2.90625z m-435 158.53125L192.5 327.3125l322.875-157.59375L838.25 327.78125 515.28125 485.375z m0 0" p-id="2815" fill="#333333"></path></svg>