<?xml version="1.0" standalone="no"?><!DOCTYPE svg PUBLIC "-//W3C//DTD SVG 1.1//EN" "http://www.w3.org/Graphics/SVG/1.1/DTD/svg11.dtd"><svg t="1587458476599" class="icon" viewBox="0 0 1024 1024" version="1.1" xmlns="http://www.w3.org/2000/svg" p-id="8743" width="64" height="64" xmlns:xlink="http://www.w3.org/1999/xlink"><defs><style type="text/css"></style></defs><path d="M835.072 358.4h-233.472V158.72c0-12.8-9.728-25.6-25.6-25.6h-384c-12.8 0-25.6 9.728-25.6 25.6v706.56c0 12.8 9.728 25.6 25.6 25.6h640c12.8 0 25.6-9.728 25.6-25.6V380.928c3.072-12.8-6.656-22.528-22.528-22.528z m-397.824 486.4h-92.16v-189.44h92.16v189.44z m121.344-5.12H478.208v-207.872c0-12.288-10.24-22.528-22.528-22.528H321.536c-12.288 0-22.528 10.24-22.528 22.528V839.68h-81.92V184.32h337.92v655.36h3.584z m257.536 0h-209.92v-71.68h118.272c13.312 0 26.624-10.24 25.6-27.136-0.512-13.824-12.8-24.064-26.624-24.064h-117.248v-66.56h118.272c12.8 0 25.6-9.728 25.6-25.6 0-12.8-9.728-25.6-25.6-25.6h-118.272v-56.32h118.272c12.8 0 25.6-9.728 25.6-25.6 0-12.8-9.728-25.6-25.6-25.6h-118.272V404.48h209.92v435.2z" fill="#333333" p-id="8744"></path></svg>