<?xml version="1.0" standalone="no"?><!DOCTYPE svg PUBLIC "-//W3C//DTD SVG 1.1//EN" "http://www.w3.org/Graphics/SVG/1.1/DTD/svg11.dtd"><svg t="1587458446283" class="icon" viewBox="0 0 1024 1024" version="1.1" xmlns="http://www.w3.org/2000/svg" p-id="7573" width="64" height="64" xmlns:xlink="http://www.w3.org/1999/xlink"><defs><style type="text/css"></style></defs><path d="M831.050295 394.48567v272.35723c36.247788 63.599903 73.410084 126.867257 110.406105 190.134611 4.738816 8.147438 4.738816 17.458797 0.083138 25.689372-4.655679 8.147438-12.803118 12.886255-22.197614 12.886255H667.103879c-9.643907 53.54031-40.82033 90.286921-79.977916 110.406105-23.44467 12.054883-49.716002 18.040757-75.987335 18.040757s-52.542665-6.06901-75.987334-18.040757c-39.157587-20.119185-70.33401-56.948932-79.977917-110.406105H104.681212c-9.394495 0-17.37566-4.572542-22.114476-12.719981-4.738816-8.064301-4.738816-17.37566-0.166275-25.523098l107.496306-190.384022V394.568807c0-29.430543 5.403913-59.692458 15.712917-89.289275 10.225867-29.430543 25.356824-58.279126 44.894049-85.049281 20.784282-28.516035 47.388163-55.119916 77.234392-76.735569 27.185841-19.703499 57.198344-35.416416 88.291629-44.810912 1.330194-46.806203 25.439961-76.98498 56.117561-90.536332 12.221158-5.403913 25.523098-8.064301 38.908176-8.064301 13.30194 0 26.687018 2.743525 38.908176 8.147439 30.760737 13.551352 54.953641 43.97954 56.366972 91.118291 31.342697 9.56077 61.272063 25.273687 88.29163 45.060324 29.846229 21.781927 56.200698 48.552082 76.98498 77.483802 19.204676 26.603881 34.003085 55.203053 44.062677 84.384185 10.059592 29.264269 15.380369 59.276772 15.380369 88.374766zM530.675853 82.970853c5.902736 0.665097 11.722335 1.496468 16.710563 2.32784-2.660388-11.556061-10.14273-19.620362-19.370951-24.02663-5.154502-2.494114-10.890964-3.824308-16.544288-3.907445s-11.389786 0.914508-16.544289 3.242348c-9.145084 4.073719-16.710563 12.054883-19.703499 24.359178 4.572542-0.748234 9.893318-1.413331 15.380369-1.995291 6.567833-0.665097 13.468215-1.16392 19.869773-1.163919 6.235285 0 13.385078 0.498823 20.285459 1.330194z m76.901843 812.499148H414.69956c7.898027 26.936429 24.60859 46.224243 45.143461 57.863441 15.62978 8.812536 33.421125 13.218803 51.295607 13.218803s35.748965-4.406268 51.295608-13.218803c20.534871-11.556061 37.245433-30.843874 45.14346-57.863441z m-444.617358-57.946578h696.439718c0.58196 0 0.997646-0.249411 1.330194-0.58196s0.58196-0.831371 0.581959-1.413331-46.141106-80.310465-70.334009-122.294715c-6.983519-12.138021-12.138021-21.033693-14.133312-24.442315-1.247057-2.161565-2.161565-4.489405-2.826662-6.900382s-0.997646-4.905091-0.997646-7.399204V394.48567c0-48.63522-18.788991-98.351222-50.131688-140.751157-31.342697-42.483072-75.2391-77.56694-125.287651-96.522205l-7.981164-2.660388c-19.038402-6.318422-44.644637-14.881546-79.31282-14.881546-33.254851 0.249411-64.846959 10.225867-83.63595 16.128603l-0.415686 0.083137c-50.879922 18.539579-95.607697 53.457173-127.532354 96.189657-31.84152 42.649346-51.046196 92.947309-51.046196 142.247625v280.005846c0 2.494114-0.332549 4.988228-0.997646 7.399204s-1.579605 4.738816-2.826662 6.900381l-82.804579 145.739385c-0.166274 0.332549-0.249411 0.748234-0.249411 1.080783s0.083137 0.748234 0.332548 1.080782c0.166274 0.249411 0.332549 0.415686 0.665097 0.58196s0.665097 0.249411 1.080783 0.249412z" p-id="7574" fill="#333333"></path></svg>