<?xml version="1.0" standalone="no"?><!DOCTYPE svg PUBLIC "-//W3C//DTD SVG 1.1//EN" "http://www.w3.org/Graphics/SVG/1.1/DTD/svg11.dtd"><svg t="1587459682179" class="icon" viewBox="0 0 1024 1024" version="1.1" xmlns="http://www.w3.org/2000/svg" p-id="15360" width="64" height="64" xmlns:xlink="http://www.w3.org/1999/xlink"><defs><style type="text/css"></style></defs><path d="M513.344 971.2c-12.8 0-25.6-6.4-25.6-25.6v-352c0-12.8 12.8-25.6 25.6-25.6s25.6 12.8 25.6 25.6v352c0 19.2-12.8 25.6-25.6 25.6z m-133.696-569.6H231.744c-12.8 0-19.2-6.4-25.6-12.8-6.4-6.4 0-19.2 6.4-25.6l236.8-281.6c32-38.4 102.4-38.4 140.8 0l236.8 281.6c6.4 6.4 6.4 19.2 6.4 25.6 0 6.4-25.6 12.8-38.4 12.8h-147.968l205.568 249.6c6.4 6.4 6.4 19.2 6.4 25.6 0 6.4-12.8 12.8-25.6 12.8h-224c-12.8 0-25.6-12.8-25.6-25.6s12.8-25.6 25.6-25.6h166.4l-230.4-281.6c-12.8-19.2-44.8-19.2-57.6 0l-236.8 281.6h166.4c12.8 0 25.6 12.8 25.6 25.6s-12.8 25.6-25.6 25.6h-224c-12.8 0-19.2-6.4-25.6-12.8-6.4-6.4 0-19.2 6.4-25.6l205.504-249.6z m228.928-46.592a23.872 23.872 0 0 1 13.568-4.608h121.6l-198.4-236.8c-19.2-19.2-44.8-19.2-64 0l-198.4 236.8h138.88l21.12-25.6c32-38.4 102.4-38.4 140.8 0l24.832 30.208z" fill="#333333" p-id="15361"></path></svg>