<?xml version="1.0" standalone="no"?><!DOCTYPE svg PUBLIC "-//W3C//DTD SVG 1.1//EN" "http://www.w3.org/Graphics/SVG/1.1/DTD/svg11.dtd"><svg t="1587461194460" class="icon" viewBox="0 0 1024 1024" version="1.1" xmlns="http://www.w3.org/2000/svg" p-id="19209" width="64" height="64" xmlns:xlink="http://www.w3.org/1999/xlink"><defs><style type="text/css"></style></defs><path d="M544 534.4c57.6-41.6 96-108.8 96-182.4 0-124.8-99.2-224-224-224s-224 99.2-224 224c0 76.8 38.4 144 96 182.4C156.8 585.6 64 713.6 64 864v32h64v-32c0-160 128-288 288-288s288 128 288 288c0 9.6 0 22.4-3.2 32h64v-32C768 713.6 675.2 585.6 544 534.4zM416 512c-89.6 0-160-70.4-160-160s70.4-160 160-160 160 70.4 160 160-70.4 160-160 160z" p-id="19210" fill="#333333"></path><path d="M780.8 502.4C812.8 473.6 832 432 832 384c0-80-57.6-147.2-134.4-156.8l-9.6 64c44.8 6.4 80 48 80 96 0 54.4-41.6 96-96 96v64c124.8 0 224 99.2 224 224 0 9.6 0 22.4-3.2 32h64c0-9.6 3.2-22.4 3.2-32 0-124.8-73.6-227.2-179.2-268.8z" p-id="19211" fill="#333333"></path></svg>