<?xml version="1.0" standalone="no"?><!DOCTYPE svg PUBLIC "-//W3C//DTD SVG 1.1//EN" "http://www.w3.org/Graphics/SVG/1.1/DTD/svg11.dtd"><svg t="1587286031794" class="icon" viewBox="0 0 1024 1024" version="1.1" xmlns="http://www.w3.org/2000/svg" p-id="1251" width="32" height="32" xmlns:xlink="http://www.w3.org/1999/xlink"><defs><style type="text/css"></style></defs><path d="M608 160h-192c-19.2 0-32-12.8-32-32s12.8-32 32-32h192c19.2 0 32 12.8 32 32s-12.8 32-32 32z" p-id="1252" fill="#666666"></path><path d="M960 96h-96c-16 0-32 16-32 32s16 32 32 32h96v160H64V160h96c16 0 32-16 32-32s-16-32-32-32H64C28.8 96 0 124.8 0 160v800c0 35.2 28.8 64 64 64h896c35.2 0 64-28.8 64-64V160c0-35.2-28.8-64-64-64z m0 864H64V384h896v576z" p-id="1253" fill="#666666"></path><path d="M288 224c-19.2 0-32-12.8-32-32V32c0-19.2 12.8-32 32-32s32 12.8 32 32v160c0 19.2-12.8 32-32 32zM736 224c-19.2 0-32-12.8-32-32V32c0-19.2 12.8-32 32-32s32 12.8 32 32v160c0 19.2-12.8 32-32 32zM288 640H224c-19.2 0-32-12.8-32-32s12.8-32 32-32h64c19.2 0 32 12.8 32 32s-12.8 32-32 32zM544 640h-64c-19.2 0-32-12.8-32-32s12.8-32 32-32h64c19.2 0 32 12.8 32 32s-12.8 32-32 32zM800 640h-64c-19.2 0-32-12.8-32-32s12.8-32 32-32h64c19.2 0 32 12.8 32 32s-12.8 32-32 32zM288 832H224c-19.2 0-32-12.8-32-32s12.8-32 32-32h64c19.2 0 32 12.8 32 32s-12.8 32-32 32zM544 832h-64c-19.2 0-32-12.8-32-32s12.8-32 32-32h64c19.2 0 32 12.8 32 32s-12.8 32-32 32zM800 832h-64c-19.2 0-32-12.8-32-32s12.8-32 32-32h64c19.2 0 32 12.8 32 32s-12.8 32-32 32z" p-id="1254" fill="#666666"></path></svg>