<?xml version="1.0" standalone="no"?><!DOCTYPE svg PUBLIC "-//W3C//DTD SVG 1.1//EN" "http://www.w3.org/Graphics/SVG/1.1/DTD/svg11.dtd"><svg t="1587458419254" class="icon" viewBox="0 0 1024 1024" version="1.1" xmlns="http://www.w3.org/2000/svg" p-id="6962" width="64" height="64" xmlns:xlink="http://www.w3.org/1999/xlink"><defs><style type="text/css"></style></defs><path d="M494.464 658.285714c8.539429-103.533714 88.96-186.697143 191.250286-199.442285V209.097143l-156.141715 156.141714c-8.338286 103.753143-88.850286 187.154286-191.286857 199.917714V658.285714h156.178286z m2.285714 54.857143H338.285714v155.428572a27.428571 27.428571 0 0 1-54.857143 0V713.142857h-164.571428a27.428571 27.428571 0 0 1 0-54.857143h164.571428v-93.129143C175.177143 551.68 91.428571 459.337143 91.428571 347.428571c0-121.179429 98.249143-219.428571 219.428572-219.428571 102.619429 0 188.781714 70.436571 212.772571 165.595429l153.782857-153.782858a45.714286 45.714286 0 0 1 64.64 0l193.956572 193.956572a27.428571 27.428571 0 0 1-38.784 38.784L740.571429 215.917714v242.925715C848.822857 472.32 932.571429 564.662857 932.571429 676.571429c0 121.179429-98.249143 219.428571-219.428572 219.428571-108.726857 0-198.985143-79.085714-216.393143-182.857143zM310.857143 512a164.571429 164.571429 0 1 0 0-329.142857 164.571429 164.571429 0 0 0 0 329.142857z m402.285714 329.142857a164.571429 164.571429 0 1 0 0-329.142857 164.571429 164.571429 0 0 0 0 329.142857z" p-id="6963" fill="#333333"></path></svg>