<?xml version="1.0" standalone="no"?><!DOCTYPE svg PUBLIC "-//W3C//DTD SVG 1.1//EN" "http://www.w3.org/Graphics/SVG/1.1/DTD/svg11.dtd"><svg t="1588066929929" class="icon" viewBox="0 0 1024 1024" version="1.1" xmlns="http://www.w3.org/2000/svg" p-id="1938" width="64" height="64" xmlns:xlink="http://www.w3.org/1999/xlink"><defs><style type="text/css"></style></defs><path d="M512 1023.999248a510.488984 510.488984 0 1 1 199.297091-40.28374 508.810495 508.810495 0 0 1-199.297091 40.28374z m0-964.903001C262.240811 59.096247 59.089909 262.274005 59.089909 512.006338s203.177758 452.910091 452.910091 452.910091 452.910091-203.177758 452.910091-452.923519S761.745761 59.082819 512 59.082819z" fill="#fea473" p-id="1939"></path><path d="M493.08007 681.090624a53.9265 53.9265 0 0 1-38.256125-15.818082L286.89446 497.329629a29.541409 29.541409 0 1 1 41.774238-41.774239L493.08007 619.966762l279.48859-279.48859a29.541409 29.541409 0 0 1 41.774238 41.774239L531.336195 665.272542a53.9265 53.9265 0 0 1-38.256125 15.818082z" fill="#fea473" p-id="1940"></path></svg>