<?xml version="1.0" standalone="no"?><!DOCTYPE svg PUBLIC "-//W3C//DTD SVG 1.1//EN" "http://www.w3.org/Graphics/SVG/1.1/DTD/svg11.dtd"><svg t="1587982832687" class="icon" viewBox="0 0 1024 1024" version="1.1" xmlns="http://www.w3.org/2000/svg" p-id="6322" width="64" height="64" xmlns:xlink="http://www.w3.org/1999/xlink"><defs><style type="text/css"></style></defs><path d="M533.1 578.1c-5 5-12 8.1-19.6 8.1-15.3 0-27.7-12.4-27.7-27.7V329.9c0-15.3 12.4-27.7 27.7-27.7 15.3 0 27.7 12.4 27.7 27.7v228.6c0 7.6-3.1 14.6-8.1 19.6z" p-id="6323" fill="#D8D8D8"></path><path d="M647.4 424.5c5 5 8.1 12 8.1 19.6 0 15.3-12.4 27.7-27.7 27.7H399.2c-15.3 0-27.7-12.4-27.7-27.7 0-15.3 12.4-27.7 27.7-27.7h228.6c7.7 0 14.6 3.1 19.6 8.1z" p-id="6324" fill="#D8D8D8"></path><path d="M152 937.2V85.9c0-12.1 9.8-21.9 21.9-21.9h676.9c12.1 0 21.9 9.8 21.9 21.9v845.6c0 16.9-18.3 27.5-33 19L528.3 769.4c-6.8-4-15.2-4-22.1 0L185 956.2c-14.7 8.5-33-2.1-33-19z m55.5-817.8v759.5l309.8-180.1 300 174.4V119.4H207.5z" p-id="6325" fill="#D8D8D8"></path></svg>