<?xml version="1.0" standalone="no"?><!DOCTYPE svg PUBLIC "-//W3C//DTD SVG 1.1//EN" "http://www.w3.org/Graphics/SVG/1.1/DTD/svg11.dtd"><svg t="1586760690081" class="icon" viewBox="0 0 1024 1024" version="1.1" xmlns="http://www.w3.org/2000/svg" p-id="1246" width="32" height="32" xmlns:xlink="http://www.w3.org/1999/xlink"><defs><style type="text/css"></style></defs><path d="M949.891418 351.636009c18.372262 51.044966 28.584025 104.134573 28.584025 161.300817 0 257.27489-208.263125 465.538617-465.538617 465.538617-257.268869 0-465.531994-208.263125-465.531994-465.538617 0-257.269471 208.263727-465.532596 465.531994-465.532596 134.762636 0 255.230249 57.16805 340.986539 149.051036 8.16652 0 14.295023-2.04464 20.416903-8.16652 0 0 8.167122-8.167122 8.167122-24.499561-91.87817-100.051313-224.596767-161.307439-369.570564-161.307439-281.769032 0-510.45508 228.686048-510.45508 510.45508 0 281.775655 228.686048 510.461101 510.45508 510.461101 281.775655 0 510.461101-228.685446 510.461101-510.461101 0-63.294747-12.250382-122.506835-32.672704-177.635062-10.205742-6.127901-28.582821-8.16652-40.833805 16.334245z m0 0" fill="#FFB249" p-id="1247"></path><path d="M545.610132 386.347333l-10.211763 12.249178c63.295349 65.340591 142.929759 110.257657 240.935829 134.763238-10.211161 14.2884-20.416903 28.583423-28.583423 42.877844-40.839224-14.294421-77.589769-30.627461-114.345734-53.089606v30.628063H382.264073v-30.628063c-36.756566 22.462145-75.550548 42.878446-118.428994 61.256728-8.16652-14.295023-18.372262-26.545405-26.544803-36.756566 102.094147-40.832601 187.851039-93.922208 255.230851-161.300816h53.089005zM343.469489 259.751819h46.961104c-8.16652 18.377681-18.377681 34.711926-26.544803 51.044364H519.065328v36.757168H341.424848c-22.462747 34.710721-49.000928 65.339387-73.507111 89.838948-8.167122-10.211161-16.334245-20.417505-26.544803-32.672704 38.795788-38.788563 75.551752-87.794909 102.096555-144.967776z m-81.674234 467.576032h316.48156c30.628063-51.044966 57.172867-100.04469 77.589769-149.051036l40.839224 22.461543c-24.506184 42.877844-49.006346 85.75629-73.506509 126.590095h132.717996v38.795186H261.795255v-38.795788z m53.08479-120.468215l34.71012-18.372262c22.462747 34.711324 40.840428 71.461869 59.218109 108.217832l-36.755964 20.416903c-16.333643-38.794584-34.711324-75.550548-57.172265-110.262473z m83.717068-167.428717c-14.295023-20.416903-30.627461-38.795186-44.922484-57.167448l28.589444-20.422924c16.333041 16.340265 32.666683 32.673306 49.000927 53.089607l-32.667887 24.500765z m110.257055-12.249781c-34.711324 32.672102-73.507713 63.300767-118.424177 89.838948h230.724668c-40.833203-24.498959-77.589769-55.127624-112.300491-89.838948z m-40.834408 153.140317l36.750546-10.211762c14.295023 38.795186 26.544201 79.63441 36.755964 118.428993l-40.839225 12.250383c-8.165918-42.878446-18.377681-83.71767-32.667285-120.467614z m110.257055-320.569636h44.922484c-8.16652 18.377681-16.339663 34.711926-24.505581 51.044364h171.5186v36.757168H576.238195c-10.211763 14.287196-18.377681 28.583423-26.545405 38.794584-14.294421-8.16652-26.544803-14.295023-38.793982-18.377681 28.582821-30.629268 48.999724-67.379813 67.378007-108.218435z m87.80093 185.807602c-16.333643-18.378283-36.756566-38.795788-61.256127-59.212088l26.544803-24.506786c24.500163 20.422923 44.917066 38.795788 63.295349 57.173469l-28.584025 26.545405z m0 0M886.59065 259.751819c0 10.690411 4.404767 21.315196 11.963796 28.875428 7.560233 7.559631 18.18562 11.963796 28.875428 11.963796 10.691615 0 21.317002-4.404165 28.876031-11.963796 7.559631-7.560233 11.957775-18.185018 11.957775-28.875428 0-10.691013-4.398746-21.3164-11.957775-28.875429-7.559028-7.560233-18.184415-11.957775-28.876031-11.957775-10.689809 0-21.315196 4.397542-28.875428 11.957775-7.559028 7.559028-11.963796 18.184415-11.963796 28.875429z m0 0" fill="#FFB249" p-id="1248"></path></svg>