<?xml version="1.0" standalone="no"?><!DOCTYPE svg PUBLIC "-//W3C//DTD SVG 1.1//EN" "http://www.w3.org/Graphics/SVG/1.1/DTD/svg11.dtd"><svg t="1586760926041" class="icon" viewBox="0 0 1024 1024" version="1.1" xmlns="http://www.w3.org/2000/svg" p-id="2300" xmlns:xlink="http://www.w3.org/1999/xlink" width="32" height="32"><defs><style type="text/css"></style></defs><path d="M838.144 187.392c0-22.528-21.504-16.896-28.16-10.24-12.8 13.824-46.592 41.984-118.784 56.832-11.264 2.56-22.016 3.584-33.28 3.584-34.816 0-64-11.264-97.28-24.576-38.4-14.848-81.92-31.744-141.312-31.744-5.12 0-10.24 0-15.36 0.512-64.512 3.072-120.32 31.232-160.768 52.224a1641.853 1641.853 0 0 1-35.84 17.408l-3.584-8.704-0.512-0.512c-5.632-13.312-20.992-19.456-34.304-13.824-6.144 2.56-11.264 7.68-13.824 14.336-2.56 6.144-2.56 13.824 0 19.968l266.752 631.808c4.096 9.728 13.312 15.872 24.064 15.872 3.584 0 7.168-0.512 10.24-2.048 13.312-5.632 19.456-20.992 13.824-34.304L378.88 657.92c11.776-19.456 37.888-52.224 88.064-66.048 15.872-4.096 32.256-6.656 50.176-6.656 34.304 0 67.584 7.68 102.912 15.872 32.256 7.168 65.024 14.848 97.28 14.848 48.64 0 86.016-16.896 118.272-52.736 1.024-1.536 2.048-5.12 2.56-8.192V187.392z" fill="#FF6700" p-id="2301"></path></svg>