<?xml version="1.0" standalone="no"?><!DOCTYPE svg PUBLIC "-//W3C//DTD SVG 1.1//EN" "http://www.w3.org/Graphics/SVG/1.1/DTD/svg11.dtd"><svg t="1585532306471" class="icon" viewBox="0 0 1024 1024" version="1.1" xmlns="http://www.w3.org/2000/svg" p-id="4674" width="64" height="64" xmlns:xlink="http://www.w3.org/1999/xlink"><defs><style type="text/css"></style></defs><path d="M925.049 322.516c-12.902-40.048-36.435-77.515-67.916-108.376l-0.206-0.206c-32.1-30.758-70.083-53.569-109.718-66.161-47.066-14.966-94.752-16.411-141.508-4.129-31.481 8.154-60.071 22.501-90.726 45.724-28.9-20.643-63.271-36.641-98.364-45.724-47.479-12.386-95.371-11.044-142.231 4.129-41.286 13.108-78.237 35.403-109.924 66.368-30.552 29.829-53.982 67.193-67.813 107.963l-0.103 0.31c-15.069 46.55-16.411 92.997-4.129 137.999 11.56 44.795 36.022 85.978 72.56 122.62l307.375 307.375c10.218 10.218 23.946 15.895 38.086 15.895 0.929 0 1.858 0 2.787-0.103 14.244-0.723 27.146-7.122 36.332-17.856l303.66-303.040 1.755-1.239 1.651-1.548c34.887-34.268 60.071-76.379 72.664-121.897 12.179-45.002 10.838-91.449-4.232-138.102zM882.524 447.819c-10.115 36.641-30.345 70.703-58.317 98.777l-1.961 1.342-309.44 309.027c-0.413 0.516-1.032 1.135-2.271 1.135-0.723 0-2.477-0.103-4.232-1.755l-307.375-307.375c-30.449-30.449-50.576-64.303-59.968-100.635l-0.103-0.413c-9.805-35.816-8.67-72.87 3.406-110.337 11.354-33.545 30.655-64.2 55.84-88.765 26.217-25.597 56.768-44.073 90.726-54.807h0.103c38.499-12.489 76.173-13.624 115.292-3.406 35.093 9.083 68.948 26.217 95.371 48.202l15.482 12.902 15.482-12.902c31.274-26.113 57.388-40.46 87.217-48.202 37.88-9.909 76.483-8.773 114.776 3.406 32.616 10.322 63.994 29.313 90.83 54.911 25.907 25.391 45.208 55.943 55.633 88.559 12.179 37.364 13.315 74.625 3.509 110.337z" p-id="4675" fill="#ffffff"></path></svg>