<?xml version="1.0" standalone="no"?><!DOCTYPE svg PUBLIC "-//W3C//DTD SVG 1.1//EN" "http://www.w3.org/Graphics/SVG/1.1/DTD/svg11.dtd"><svg t="1575817558920" class="icon" viewBox="0 0 1024 1024" version="1.1" xmlns="http://www.w3.org/2000/svg" p-id="20021" xmlns:xlink="http://www.w3.org/1999/xlink" width="24" height="24"><defs><style type="text/css"></style></defs><path d="M532.906667 150.613333v-42.666666a21.333333 21.333333 0 0 0-42.666667 0v42.666666A362.24 362.24 0 0 0 256 768a21.333333 21.333333 0 0 0 30.293333 0 21.76 21.76 0 0 0 0-30.293333A317.013333 317.013333 0 0 1 192 512a320 320 0 0 1 640 0 317.013333 317.013333 0 0 1-93.866667 226.133333 21.76 21.76 0 0 0 0 30.293334 21.76 21.76 0 0 0 15.36 6.4A21.333333 21.333333 0 0 0 768 768a362.24 362.24 0 0 0-235.093333-617.386667z" p-id="20022" fill="#444444"></path><path d="M746.666667 896h-213.333334v-384h42.666667a21.333333 21.333333 0 0 0 0-42.666667h-128a21.333333 21.333333 0 0 0 0 42.666667h42.666667v384h-213.333334a21.333333 21.333333 0 0 0 0 42.666667h469.333334a21.333333 21.333333 0 0 0 0-42.666667z" p-id="20023" fill="#444444"></path></svg>