<?xml version="1.0" encoding="utf-8"?>
<!-- Generator: Adobe Illustrator 16.0.0, SVG Export Plug-In . SVG Version: 6.00 Build 0)  -->
<!DOCTYPE svg PUBLIC "-//W3C//DTD SVG 1.1//EN" "http://www.w3.org/Graphics/SVG/1.1/DTD/svg11.dtd">
<svg version="1.1" id="图层_1" xmlns="http://www.w3.org/2000/svg" xmlns:xlink="http://www.w3.org/1999/xlink" x="0px" y="0px"
	 width="24px" height="24px" viewBox="0 0 24 24" enable-background="new 0 0 24 24" xml:space="preserve">
<path fill="#FFFFFF" d="M20.885,18.817H16.23c-1.564,1.518-3.967,4.24-3.967,4.24c-0.146,0.152-0.382,0.152-0.527,0
	c0,0-3.281-3.396-4.074-4.24H3.116c-1.686,0-3.052-1.576-3.052-3.285V3.924c0-1.709,1.336-3.096,2.984-3.096h17.905
	c1.648,0,2.984,1.387,2.984,3.096v11.608C23.937,17.241,22.57,18.817,20.885,18.817L20.885,18.817z M6.032,8.54
	c-0.824,0-1.492,0.693-1.492,1.548c0,0.854,0.668,1.548,1.492,1.548s1.492-0.693,1.492-1.548C7.524,9.233,6.855,8.54,6.032,8.54
	L6.032,8.54z M12,8.54c-0.824,0-1.492,0.693-1.492,1.548c0,0.854,0.669,1.548,1.492,1.548s1.492-0.693,1.492-1.548
	C13.492,9.233,12.823,8.54,12,8.54L12,8.54z M17.969,8.54c-0.823,0-1.492,0.693-1.492,1.548c0,0.854,0.669,1.548,1.492,1.548
	s1.492-0.693,1.492-1.548C19.461,9.233,18.792,8.54,17.969,8.54L17.969,8.54z"/>
</svg>
