<?xml version="1.0" encoding="utf-8"?>
<!-- Generator: Adobe Illustrator 16.0.0, SVG Export Plug-In . SVG Version: 6.00 Build 0)  -->
<!DOCTYPE svg PUBLIC "-//W3C//DTD SVG 1.1//EN" "http://www.w3.org/Graphics/SVG/1.1/DTD/svg11.dtd">
<svg version="1.1" id="图层_1" xmlns="http://www.w3.org/2000/svg" xmlns:xlink="http://www.w3.org/1999/xlink" x="0px" y="0px"
	 width="24px" height="24px" viewBox="0 0 24 24" enable-background="new 0 0 24 24" xml:space="preserve">
<path fill="#F3D0AA" d="M12,3.737c-4.565,0-8.263,3.701-8.263,8.263S7.435,20.264,12,20.264c4.564,0,8.264-3.699,8.264-8.264
	C20.264,7.435,16.564,3.737,12,3.737z M17.165,17.164c-0.673,0.673-1.452,1.198-2.321,1.565c-0.9,0.382-1.855,0.573-2.841,0.573
	c-0.986,0-1.942-0.191-2.842-0.573c-0.869-0.367-1.651-0.896-2.321-1.565c-0.672-0.672-1.197-1.451-1.564-2.32
	c-0.382-0.9-0.574-1.855-0.574-2.841c0-0.986,0.192-1.941,0.574-2.842C5.643,8.292,6.17,7.51,6.84,6.84
	c0.672-0.672,1.452-1.197,2.321-1.564c0.9-0.382,1.855-0.574,2.842-0.574c0.986,0,1.941,0.192,2.841,0.574
	c0.869,0.367,1.651,0.895,2.321,1.564c0.672,0.672,1.197,1.452,1.564,2.321c0.382,0.9,0.573,1.855,0.573,2.842
	c0,0.986-0.191,1.941-0.573,2.841C18.362,15.713,17.834,16.492,17.165,17.164z"/>
<path fill="#DA7B07" d="M16.982,8.851c-0.188-0.187-0.492-0.187-0.68,0l-5.613,5.278l-2.993-3.041c-0.187-0.187-0.492-0.187-0.679,0
	c-0.187,0.188-0.187,0.492,0,0.679l3.322,3.37c0.002,0.002,0.007,0.008,0.009,0.012c0.094,0.094,0.216,0.14,0.341,0.14
	c0.123,0,0.248-0.046,0.341-0.14c0.002-0.002,0.007-0.007,0.01-0.012l5.942-5.606C17.17,9.343,17.17,9.039,16.982,8.851z"/>
</svg>
