<?xml version="1.0" encoding="utf-8"?>
<!-- Generator: Adobe Illustrator 16.0.0, SVG Export Plug-In . SVG Version: 6.00 Build 0)  -->
<!DOCTYPE svg PUBLIC "-//W3C//DTD SVG 1.1//EN" "http://www.w3.org/Graphics/SVG/1.1/DTD/svg11.dtd">
<svg version="1.1" id="图层_1" xmlns="http://www.w3.org/2000/svg" xmlns:xlink="http://www.w3.org/1999/xlink" x="0px" y="0px"
	 width="24px" height="24px" viewBox="0 0 24 24" enable-background="new 0 0 24 24" xml:space="preserve">
<path fill="#F7F7F7" d="M12,0.049C5.398,0.049,0.049,5.402,0.049,12c0,6.599,5.349,11.951,11.951,11.951
	c6.602,0,11.951-5.35,11.951-11.951C23.951,5.398,18.602,0.049,12,0.049z M19.47,19.469c-0.973,0.973-2.101,1.731-3.357,2.263
	c-1.302,0.553-2.682,0.83-4.108,0.83c-1.426,0-2.808-0.277-4.11-0.83c-1.257-0.531-2.388-1.296-3.357-2.263
	c-0.972-0.972-1.731-2.099-2.262-3.356c-0.552-1.302-0.83-2.684-0.83-4.108c0-1.426,0.278-2.807,0.83-4.11
	c0.531-1.257,1.293-2.387,2.262-3.357c0.972-0.972,2.1-1.731,3.357-2.262c1.302-0.552,2.683-0.83,4.11-0.83s2.807,0.278,4.108,0.83
	c1.257,0.531,2.389,1.294,3.357,2.262c0.972,0.972,1.73,2.1,2.261,3.357c0.554,1.302,0.829,2.683,0.829,4.11
	c0,1.425-0.275,2.807-0.829,4.108C21.2,17.37,20.438,18.497,19.47,19.469z"/>
<path fill="#F7F7F7" d="M19.206,7.446c-0.272-0.271-0.712-0.271-0.984,0l-8.118,7.633l-4.329-4.398
	c-0.271-0.271-0.711-0.271-0.981,0c-0.271,0.272-0.271,0.712,0,0.982l4.804,4.873c0.002,0.003,0.01,0.012,0.013,0.018
	c0.136,0.137,0.312,0.203,0.493,0.203c0.178,0,0.358-0.066,0.493-0.203c0.003-0.003,0.011-0.009,0.015-0.018l8.595-8.107
	C19.477,8.157,19.477,7.718,19.206,7.446z"/>
</svg>
