<?xml version="1.0" standalone="no"?><!DOCTYPE svg PUBLIC "-//W3C//DTD SVG 1.1//EN" "http://www.w3.org/Graphics/SVG/1.1/DTD/svg11.dtd"><svg t="1585532588091" class="icon" viewBox="0 0 1069 1024" version="1.1" xmlns="http://www.w3.org/2000/svg" p-id="6404" width="66.8125" height="64" xmlns:xlink="http://www.w3.org/1999/xlink"><defs><style type="text/css"></style></defs><path d="M932.374261 819.645217 724.057043 819.645217C653.979826 888.787478 558.970435 1018.568348 558.970435 1018.568348 552.470261 1025.469217 516.941913 1025.469217 510.397217 1018.568348 510.397217 1018.568348 376.030609 858.112 340.546783 819.645217L136.993391 819.645217C61.529043 819.645217 0.356174 747.831652 0.356174 669.918609L0.356174 141.000348C0.356174 63.131826 60.193391-0.044522 133.921391-0.044522L935.401739-0.044522C1009.174261-0.044522 1068.966957 63.131826 1068.966957 141.000348L1068.966957 669.918609C1068.966957 747.831652 1007.838609 819.645217 932.374261 819.645217ZM253.907478 350.47513C217.043478 350.47513 187.12487 380.482783 187.12487 417.52487 187.12487 454.566957 217.043478 484.574609 253.907478 484.574609 290.816 484.574609 320.690087 454.566957 320.690087 417.52487 320.690087 380.482783 290.816 350.47513 253.907478 350.47513ZM521.037913 350.47513C484.173913 350.47513 454.255304 380.482783 454.255304 417.52487 454.255304 454.566957 484.173913 484.574609 521.037913 484.574609 557.946435 484.574609 587.820522 454.566957 587.820522 417.52487 587.820522 380.482783 557.946435 350.47513 521.037913 350.47513ZM788.168348 350.47513C751.304348 350.47513 721.385739 380.482783 721.385739 417.52487 721.385739 454.566957 751.304348 484.574609 788.168348 484.574609 825.07687 484.574609 854.950957 454.566957 854.950957 417.52487 854.950957 380.482783 825.07687 350.47513 788.168348 350.47513Z" p-id="6405" fill="#ffffff"></path></svg>