<?xml version="1.0" encoding="utf-8"?>
<!-- Generator: Adobe Illustrator 16.0.0, SVG Export Plug-In . SVG Version: 6.00 Build 0)  -->
<!DOCTYPE svg PUBLIC "-//W3C//DTD SVG 1.1//EN" "http://www.w3.org/Graphics/SVG/1.1/DTD/svg11.dtd">
<svg version="1.1" id="图层_1" xmlns="http://www.w3.org/2000/svg" xmlns:xlink="http://www.w3.org/1999/xlink" x="0px" y="0px"
	 width="24px" height="24px" viewBox="0 0 24 24" enable-background="new 0 0 24 24" xml:space="preserve">
<path fill="#FFFFFF" d="M12,0.047C5.408,0.047,0.047,5.408,0.047,12c0,6.591,5.361,11.953,11.953,11.953S23.953,18.591,23.953,12
	C23.953,5.408,18.592,0.047,12,0.047z M12,22.238C6.355,22.238,1.762,17.645,1.762,12C1.762,6.355,6.355,1.762,12,1.762
	c5.645,0,10.238,4.593,10.238,10.238C22.238,17.645,17.645,22.238,12,22.238z"/>
<path fill="#FFFFFF" d="M8.008,15.399c0,0.943,0.669,1.329,1.486,0.857l5.885-3.397c0.817-0.473,0.817-1.245,0-1.716l-5.885-3.4
	C8.676,7.272,8.008,7.658,8.008,8.602V15.399z"/>
</svg>
