<?xml version="1.0" standalone="no"?><!DOCTYPE svg PUBLIC "-//W3C//DTD SVG 1.1//EN" "http://www.w3.org/Graphics/SVG/1.1/DTD/svg11.dtd"><svg t="1575818610585" class="icon" viewBox="0 0 1024 1024" version="1.1" xmlns="http://www.w3.org/2000/svg" p-id="28598" xmlns:xlink="http://www.w3.org/1999/xlink" width="24" height="24"><defs><style type="text/css"></style></defs><path d="M151.833812 1024a20.273857 20.273857 0 0 1-14.666688-6.279103L5.665095 880.889739a20.273857 20.273857 0 0 1 1.633494-29.611416l182.789095-152.482575a453.196008 453.196008 0 1 1 138.39514 137.27139L166.963902 1017.211154a20.273857 20.273857 0 0 1-14.747783 6.777261zM49.966369 868.470554l101.31136 105.424056L309.900386 795.971241a20.273857 20.273857 0 0 1 26.645641-3.185892 412.103796 412.103796 0 0 0 205.055583 72.001155q15.06058 1.065826 29.958968 1.065826c99.179709 0 193.968679-35.253341 269.642298-100.871128a409.891049 409.891049 0 0 0 141.337747-282.420621 412.717804 412.717804 0 1 0-748.835184 208.380495 20.273857 20.273857 0 0 1-3.579784 27.259649z" p-id="28599" fill="#444444"></path><path d="M137.389557 359.05572l28.990457-28.349804 515.507418 527.155039-28.989298 28.348644z" p-id="28600" fill="#444444"></path></svg>