<?xml version="1.0" encoding="utf-8"?>
<!-- Generator: Adobe Illustrator 16.0.0, SVG Export Plug-In . SVG Version: 6.00 Build 0)  -->
<!DOCTYPE svg PUBLIC "-//W3C//DTD SVG 1.1//EN" "http://www.w3.org/Graphics/SVG/1.1/DTD/svg11.dtd">
<svg version="1.1" id="图层_1" xmlns="http://www.w3.org/2000/svg" xmlns:xlink="http://www.w3.org/1999/xlink" x="0px" y="0px"
	 width="24px" height="24px" viewBox="0 0 24 24" enable-background="new 0 0 24 24" xml:space="preserve">
<path fill="#FFFFFF" d="M1.238,20.947c-0.05,0-0.1,0-0.15-0.017c-0.566-0.084-0.966-0.599-0.899-1.165
	c0.516-4.847,2.231-8.427,5.078-10.658c2.048-1.615,4.646-2.515,7.711-2.681l0.631-0.033V2.946c0-1.365,1.25-1.665,1.916-0.999
	l7.777,7.91c0.982,0.999,0.934,2.031-0.047,3.03l-7.581,7.71c-0.8,0.8-2.065,0.316-2.065-0.816v-3.696h-0.78
	c-2.847,0-8.027,0.566-10.741,4.38C1.921,20.78,1.587,20.947,1.238,20.947z"/>
</svg>
