<?xml version="1.0" standalone="no"?><!DOCTYPE svg PUBLIC "-//W3C//DTD SVG 1.1//EN" "http://www.w3.org/Graphics/SVG/1.1/DTD/svg11.dtd"><svg t="1575963281902" class="icon" viewBox="0 0 1024 1024" version="1.1" xmlns="http://www.w3.org/2000/svg" p-id="8754" xmlns:xlink="http://www.w3.org/1999/xlink" width="24" height="24"><defs><style type="text/css"></style></defs><path d="M1023.953953 861.981769c0 89.474725-72.539413 162.017208-162.006975 162.017208H162.028465c-89.467562 0-162.006975-72.543506-162.006976-162.017208V162.018231c0-89.474725 72.539413-162.018231 162.006976-162.018231h699.919536c89.467562 0 162.006975 72.54453 162.006975 162.018231v699.963538z" fill="#37A8D1" p-id="8755"></path><path d="M652.86086 663.662621c-40.930243 0-74.415089-37.160473-74.415088-82.577807 0-45.418356 33.484846-82.577806 74.415088-82.577806h171.568519V376.018147c0-12.111562-8.930179-22.021021-19.847571-22.021021H220.014766c-10.916369 0-19.847571 9.908436-19.847571 22.021021v410.133335c0 12.110538 8.930179 22.021021 19.847571 22.021021h584.568065c10.916369 0 19.847571-9.910483 19.847571-22.021021V663.662621H652.86086zM656.30011 339.087912l-65.121645-119.419016c-5.652608-10.363797-17.917662-13.712997-27.260223-7.441304L375.006122 339.087912h281.293988z" fill="#FFFFFF" p-id="8756"></path><path d="M615.652293 581.084814a61.933099 55.811828 90 1 0 111.623656 0 61.933099 55.811828 90 1 0-111.623656 0Z" fill="#FFFFFF" p-id="8757"></path></svg>