<?xml version="1.0" standalone="no"?><!DOCTYPE svg PUBLIC "-//W3C//DTD SVG 1.1//EN" "http://www.w3.org/Graphics/SVG/1.1/DTD/svg11.dtd"><svg t="1575817503411" class="icon" viewBox="0 0 1024 1024" version="1.1" xmlns="http://www.w3.org/2000/svg" p-id="18911" xmlns:xlink="http://www.w3.org/1999/xlink" width="24" height="24"><defs><style type="text/css"></style></defs><path d="M690.291662 670.225651c-6.053879 0-12.065803-2.608407-16.216333-7.644097-41.158399-49.969065-101.872179-78.627778-166.57276-78.627778-62.599733 0-122.033357 27.15036-163.05361 74.493621-7.611352 8.775874-20.85805 9.711176-29.617551 2.124384-8.768711-7.594979-9.720386-20.85805-2.125407-29.618575 49.009204-56.555064 120.008234-88.994893 194.796568-88.994893 77.29134 0 149.823284 34.228569 198.98803 93.916996 7.373944 8.956999 6.094812 22.187325-2.854001 29.561269C699.725522 668.658969 694.991708 670.225651 690.291662 670.225651zM815.786865 523.059893c-5.76633 0-11.498892-2.361791-15.650445-6.988158-74.451666-83.146699-181.114964-130.827651-292.642037-130.827651-109.352547 0-214.604706 46.154179-288.787242 126.636189-7.841595 8.53028-21.137413 9.079796-29.667693 1.205455-8.53028-7.856945-9.071609-21.137413-1.206478-29.667693 82.09781-89.077781 198.61043-140.169413 319.66039-140.169413 123.453706 0 241.517659 52.782134 323.92553 144.803967 7.735172 8.644891 7.004531 21.916149-1.632173 29.650297C825.778426 521.296737 820.774459 523.059893 815.786865 523.059893zM932.547125 384.653637c-5.658883 0-11.287067-2.263553-15.428388-6.750751C811.833833 263.981277 662.526295 198.641129 507.479033 198.641129c-155.081031 0-299.130821 62.157665-405.612994 175.021176-7.972579 8.44023-21.243837 8.826016-29.684066 0.861624-8.432043-7.956206-8.81783-21.243837-0.860601-29.684066 114.495684-121.361045 269.396613-188.194196 436.157661-188.194196 166.728302 0 327.271742 70.261227 440.480106 192.762235 7.874341 8.513908 7.349385 21.801539-1.172709 29.668717C942.750511 382.808616 937.641143 384.653637 932.547125 384.653637zM509.439688 861.815177c-42.413995 0-76.920904-34.515095-76.920904-76.9383 0-42.422182 34.506908-76.930113 76.920904-76.930113 42.422182 0 76.930113 34.506908 76.930113 76.930113C586.368778 827.300083 551.86187 861.815177 509.439688 861.815177zM509.439688 749.94325c-19.259646 0-34.925441 15.675004-34.925441 34.933627 0 19.267832 15.665795 34.941813 34.925441 34.941813 19.259646 0 34.933627-15.675004 34.933627-34.941813C544.373315 765.618255 528.698311 749.94325 509.439688 749.94325z" p-id="18912" fill="#444444"></path></svg>